<?xml version="1.0" encoding="UTF-8"?>
<svg id="Artwork" xmlns="http://www.w3.org/2000/svg" viewBox="0 0 779.13 779.13">
  <defs>
    <style>
      .cls-1 {
        fill: #573017;
      }

      .cls-2 {
        fill: #20331a;
      }

      .cls-3 {
        fill: #c8cdae;
      }

      .cls-4 {
        fill: #94a869;
      }

      .cls-5 {
        fill: #de8729;
      }
    </style>
  </defs>
  <g id="Icon">
    <path id="Sunlight" class="cls-2" d="M221.41,528.51c-32.05-37.93-51.44-86.91-51.44-140.38,0-120,97.66-217.66,217.66-217.66s217.62,97.66,217.62,217.66c0,53.47-19.39,102.46-51.44,140.38H221.41ZM471.78,16.73l-20.94,126.72c-.51,2.93-3.34,4.88-6.27,4.25l-1.17-.22c-2.93-.62-4.73-3.56-4-6.45l32.38-124.3Zm75.85,25.27l-46.84,119.56c-1.1,2.79-4.29,4.11-7.01,2.9l-1.1-.51c-2.75-1.21-3.89-4.44-2.57-7.12l57.51-114.83Zm68.95,40.45l-70.67,107.24c-1.65,2.49-5.06,3.12-7.48,1.36l-.95-.7c-2.42-1.76-2.9-5.21-1.03-7.52l80.14-100.38Zm59.01,53.95l-91.43,90.19c-2.13,2.09-5.57,1.98-7.59-.26l-.81-.88c-1.98-2.24-1.72-5.65,.59-7.56l99.25-81.49Zm46.51,64.99l-108.19,69.21c-2.49,1.61-5.87,.81-7.34-1.8l-.62-1.03c-1.5-2.6-.51-5.91,2.13-7.3l114.03-59.09Zm31.98,73.28l-120.22,45.18c-2.79,1.06-5.9-.44-6.82-3.26l-.37-1.17c-.92-2.82,.73-5.87,3.59-6.68l123.82-34.07Zm16.06,78.3l-127.01,19.22c-2.93,.44-5.65-1.65-5.98-4.62l-.11-1.21c-.33-2.97,1.91-5.61,4.88-5.79l128.22-7.59Zm-.59,79.95l-128.22-7.63c-2.97-.18-5.21-2.79-4.88-5.76l.11-1.21c.33-2.97,3.04-5.1,6.01-4.62l126.97,19.22Zm-17.2,78.05l-123.82-34.07c-2.86-.81-4.51-3.85-3.59-6.68l.37-1.17c.92-2.82,4.03-4.33,6.82-3.26l120.22,45.18Zm-603.47-39.39l-123.86,34.11,120.22-45.22c2.79-1.03,5.9,.44,6.82,3.3l.4,1.14c.92,2.86-.73,5.87-3.59,6.67Zm-11.7-51.82l-128.18,7.59,126.97-19.22c2.97-.44,5.68,1.69,6.01,4.66l.11,1.17c.33,2.97-1.91,5.61-4.91,5.79Zm5.5-58.94l-.11,1.17c-.33,2.97-3.04,5.1-6.01,4.66l-126.97-19.22,128.18,7.59c3.01,.18,5.21,2.82,4.91,5.79Zm11.52-50.69l-.4,1.14c-.92,2.82-4.03,4.33-6.82,3.3l-120.22-45.22,123.86,34.11c2.86,.77,4.51,3.81,3.59,6.68Zm21.79-47.2l-.62,1.06c-1.5,2.57-4.84,3.37-7.37,1.76L59.79,196.55l114.06,59.12c2.64,1.36,3.59,4.66,2.13,7.26Zm31.1-41.63l-.81,.88c-1.98,2.24-5.43,2.35-7.56,.26l-91.47-90.19,99.28,81.49c2.31,1.91,2.57,5.32,.55,7.56Zm39.1-34.26l-.99,.73c-2.38,1.72-5.79,1.14-7.45-1.36l-70.67-107.24,80.14,100.35c1.87,2.35,1.39,5.76-1.03,7.52Zm45.37-25.38l-1.1,.51c-2.75,1.21-5.94-.11-7.01-2.9l-46.87-119.56,57.54,114.83c1.32,2.68,.15,5.9-2.57,7.11Zm49.66-15.37l-1.21,.26c-2.9,.62-5.76-1.32-6.23-4.29l-20.98-126.72,32.39,124.3c.77,2.9-1.06,5.83-3.96,6.46Zm56.99-10.2c.11,2.97-2.27,5.46-5.24,5.46h-1.21c-3.01,0-5.39-2.49-5.24-5.46l5.83-128.33,5.87,128.33Z"/>
    <path class="cls-1" d="M114.08,546.12c6.4-2.98-73.24,5.35-77.3,7.39,3.53-2.98,43.64-15.54,52.2-15.95h170.7s-4.7,15.97-4.7,15.97c-1.14,3.88-2.76,7.64-5.08,10.95-3.57,5.11-8.57,8.93-18.24,9.96-.06,0-24.52-2.41-32.26,2.38-7.77,4.79-19.72,9.96-37.3,31.11-1.55-3.39-2.78-14.55,3.04-22.14-3.24-1.2-14.58-3.18-20.57-.38-5.96,2.8-51.79,41.25-56.18,36.87-3.45-3.42,24.1-28.31,40.6-40.98,6.37-4.88,14.11-7.39,22.08-7.3,5.43,.06,11.33,.26,15.57,.41,3.89,.15,7.74-.61,11.25-2.25l16.15-7.51c3.42-1.55,7.07-2.42,10.78-2.54l17.4-.85c4.94-.15,10.29-9.38,9.43-16.13h-69.57s-3.94,0-12.12,0c-2.8,0-5.29,.12-7.3,.23-4.18,.29-8.18,1.9-11.33,4.64-14.55,12.36-59.91,50.13-69.29,46.94,5.4-7.77,45.63-47.82,52.03-50.83Zm307.18,26.38c3.26,1.38,18.77,25.34,14.89,35.43-5.91-8.98-12.09-15.09-17.89-19.54-1.42,3.49-3.34,6.87-5.91,8.75,.84,3.03,2.15,9.37-.61,14.17-3.76,6.56-3.95,14.28,0,20.46-4.72-3.76-7.33-14.28-5.26-20.08,1.54-4.34,1.42-9.06,1.07-11.75-4.18,2.23-9.06,4.8-10.63,8.06,1.54-4.95,4.65-10.63,11.4-14.93,2.69-1.73,4.3-4.76,5.3-7.91-5.95-3.88-11.21-6.14-14.78-8.33-2.07-1.27-5.37-2.03-9.06-2.5-3.72,.42-6.99,1.19-9.1,2.5-3.03,1.84-6.68,3.76-11.06,6.72,.61,6.41,2.65,17.43,9.75,21.92,10.52,6.72,15.01,15.78,17.2,23.3-1.11-4.3-6.3-7.83-11.75-10.9-1.07,5.6-3.61,21.27-.15,24.95-3.38-2.19-8.56-15.97-8.79-29.79-.77-.46-1.5-.88-2.15-1.34-6.26-4.34-10.06-15.16-11.94-22.38-5.3,4.3-11.4,10.17-18.39,18.62-2.03-14.36,11.63-34.05,14.86-35.43-4.57-1.84-7.56-4.65-9.9-8.02-2.34-3.3-3.95-7.06-5.11-10.94l-2.46-8.41-2.23-7.56h102.42l-2.23,7.56-2.5,8.41c-1.15,3.88-2.76,7.64-5.07,10.94-2.38,3.38-5.37,6.22-9.94,8.02Zm-8.29-27.37h-46.37c-.88,6.76,4.49,15.97,9.41,16.12l13.78,.65,13.74-.65c4.95-.15,10.29-9.37,9.44-16.12Zm252.09,.99c-6.4-2.98,73.24,5.35,77.3,7.39-3.53-2.98-43.64-15.54-52.2-15.95h-170.7s4.7,15.97,4.7,15.97c1.14,3.88,2.76,7.64,5.08,10.95,3.57,5.11,8.57,8.93,18.24,9.96,.06,0,24.52-2.41,32.26,2.38,7.77,4.79,19.72,9.96,37.3,31.11,1.55-3.39,2.78-14.55-3.04-22.14,3.24-1.2,14.58-3.18,20.57-.38,5.96,2.8,51.79,41.25,56.18,36.87,3.45-3.42-24.1-28.31-40.6-40.98-6.37-4.88-14.11-7.39-22.08-7.3-5.43,.06-11.33,.26-15.57,.41-3.89,.15-7.74-.61-11.25-2.25l-16.15-7.51c-3.42-1.55-7.07-2.42-10.78-2.54l-17.4-.85c-4.94-.15-10.29-9.38-9.43-16.13h69.57s3.94,0,12.12,0c2.8,0,5.29,.12,7.3,.23,4.18,.29,8.18,1.9,11.33,4.64,14.55,12.36,59.91,50.13,69.29,46.94-5.4-7.77-45.63-47.82-52.03-50.83Zm-410.55,48.04c0-.72,.05-1.44,.16-2.15,.4-2.59,1.61-9.76-.13-9.99-5.17-.68-10.21-1.15-12.25-1.31,0,0-5.76-.61-9.37-.61-2.5,0-5.64,.5-6.33,.65-1.65,.35-3.34,.69-5.03,1.07-.46,.08-.92,.19-1.42,.31-1.96,.5-3.88,1-5.64,1.54-.46,.15-.84,.27-1.23,.38-.42,.12-.81,.27-1.19,.42-.81,.27-1.5,.54-2.19,.77-.35,.19-.73,.35-1.04,.46-7.91,3.57-15.74,14.01-19.39,19.39-1.31,1.96-3.57,3.11-5.95,3.03-5.84-.15-22.19,.42-29.52,2.61-10.33,3.03-43.92,29.9-45.99,34.05,3.19,.54,40.23-23.34,50.13-25.41,4.38-.92,27.18-3.34,32.32-4.53,1.38-.35,2.57-1.07,3.57-2.15,6.68-7.26,17.93-16.78,23.57-19.54,7.22-3.57,13.51-2.73,15.51-2.73,.42,0,5.34,.58,9.6,1.11,.81,.12,1.46,.69,1.61,1.46l.04,.08v5.49c.15,.69,.15,1.38,0,2.03-.5,2.07-2.42,3.69-4.76,3.53-2.23-.19-7.06,.31-7.26,.35-.19,.04-9.21,1.24-13.78,3.26-3.66,1.62-17.27,13.47-20.38,18.04-1.15,1.69-3.07,2.69-5.14,2.61-4.99-.12-14.47-.04-20.73,1.84-8.87,2.61-17.77,16.47-19.54,20.04,2.76,.46,10.36-5.53,15.24-9.67,2.96-2.5,6.6-3.99,10.48-4.26,6.37-.38,16.12-1.15,20.5-2.15,1.19-.31,2.23-.92,3.07-1.84,5.76-6.26,15.39-14.4,20.27-16.81,6.18-3.03,11.59-2.3,13.28-2.3,.38,0,4.18,.58,10.25-1.34,4.22-1.38,7.68-4.95,8.37-11.52,.04-.15,.12-.84,.27-1.8v-4.4Zm268.62,4.4c.15,.96,.23,1.65,.27,1.8,.69,6.56,4.15,10.13,8.37,11.52,6.07,1.92,9.87,1.34,10.25,1.34,1.69,0,7.1-.73,13.28,2.3,4.88,2.42,14.51,10.56,20.27,16.81,.84,.92,1.88,1.54,3.07,1.84,4.38,1,14.13,1.77,20.5,2.15,3.88,.27,7.52,1.77,10.48,4.26,4.88,4.15,12.48,10.13,15.24,9.67-1.77-3.57-10.67-17.43-19.54-20.04-6.26-1.88-15.74-1.96-20.73-1.84-2.07,.08-3.99-.92-5.14-2.61-3.11-4.57-16.72-16.42-20.38-18.04-4.57-2.03-13.59-3.22-13.78-3.26-.19-.04-5.03-.54-7.26-.35-2.34,.15-4.26-1.46-4.76-3.53-.15-.65-.15-1.34,0-2.03v-5.49s.04-.08,.04-.08c.15-.77,.81-1.34,1.61-1.46,4.26-.54,9.17-1.11,9.6-1.11,2,0,8.29-.84,15.51,2.73,5.64,2.76,16.89,12.28,23.57,19.54,1,1.07,2.19,1.8,3.57,2.15,5.14,1.19,27.95,3.61,32.32,4.53,9.9,2.07,46.95,25.95,50.13,25.41-2.07-4.15-35.66-31.02-45.99-34.05-7.33-2.19-23.69-2.76-29.52-2.61-2.38,.08-4.64-1.07-5.95-3.03-3.65-5.37-11.48-15.82-19.39-19.39-.31-.12-.69-.27-1.04-.46-.69-.23-1.38-.5-2.19-.77-.38-.15-.77-.31-1.19-.42-.38-.12-.77-.23-1.23-.38-1.77-.54-3.69-1.04-5.64-1.54-.5-.12-.96-.23-1.42-.31-1.69-.38-3.38-.73-5.03-1.07-.69-.15-3.84-.65-6.33-.65-3.61,0-9.37,.61-9.37,.61-2.03,.15-7.07,.62-12.25,1.31-1.74,.23-.53,7.4-.13,9.99,.11,.71,.16,1.43,.16,2.15v4.4Zm-243.76,40.92c-1.62-1.45-3.01-2.54-3.01-2.54-.95-.86-2.23-2.74-3.49-4.83-2.99-4.96-3.45-11.05-1.33-16.43l16.91-55.72-25.98-2.89-6.7,55.36c-.41,4.46-4.02,7.91-8.52,8.28-4.63,.41-10.62,1.59-17.45,4.4-7.95,3.28-11.39,9.84-15.32,10.92-9.29,2.47-19.7,6.95-29.8,12.12-4.44,2.27-9.36,3.34-14.34,3.13-6.36-.27-13.47-.17-19.01,1.01-13.02,2.7-27.45,21.57-30.43,26.47,3.89,1.01,15.52-6.69,23.06-12.1,4.56-3.18,9.97-4.97,15.55-4.87,.51,0,.98,.03,1.56,.03,3.25,.07,7,.1,10.72,.1,1.99-.03,1.45,.1,3.38-.3-4.26,6.83-4.56,15.15-4.56,19.2,1.15-2.37,3.35-5.21,5.95-8.15,9.84-10.99,22.28-19.27,36.01-24.65,4.06-1.59,7.61-2.98,10.08-3.92,1.96-.78,3.99,.78,3.82,2.84-.71,9.97-8.99,22.35-17.82,32.93-6.12-.85-16.16-1.52-23.7,1.86-.57,.24-.34,1.01,.24,.98,6.56-.47,12.95,3.85,15.65,6.02-6.19,6.59-11.56,11.6-13.46,13.35-.24,.2-.07,.61,.27,.61,15.52-1.28,49.84-32.05,53.01-59.4,.71-6.09,4.63-11.33,10.51-12.98,.95-.27,1.89-.47,2.81-.54h.07l-.03,.24c0,.07,0,.17-.03,.27,.03,.17,.03,.3,.03,.47,0,5.31-.61,19.58-7.47,30.87h-.27c-.03,.1,0,.24,0,.41-1.18,1.86-2.54,3.69-4.09,5.34-12.85,13.42-19.51,54.79-16.53,65.45,.1,.36,.6,.37,.67,0,2.73-13.28,10.89-39.38,21.21-53.82,1.83,9.6,5.21,14.47,8.55,19.2-4.43,9.57-5.07,23.36-4.4,30.53,.03,.41,.61,.41,.68,0,2.16-10.18,7.27-18.05,10.38-22.11l.14,.16c7.32,8.56,10.68,19.82,9.35,31.01-.83,6.96-1.69,14.1-1.6,13.93,16.34-32.3-1.36-51.19-7.14-58.9-4.44-6.03-6.84-13.45-8.09-19.54-.39-1.92-.06-3.9,.94-5.59,1.59-2.67,2.97-5.75,4.1-9.59,3.38,1.96,10.85,6.9,15.92,15.38-1.12-5.21-6.53-18.32-14.03-24.31,.64-4.19,1.01-9.13,1.15-14.91,2.43,3.85,4.63,7,5.54,7.81,1.45,1.72,3.72,4.19,5.82,6.19,1.96,1.83,4.09,5.48,4.67,8.11,1.52,6.69,2.13,12.68,.27,20.42-2.2,8.93-2.2,26.27,2.3,32.15,.2,.3,.68,.1,.61-.27-.71-4.26-.24-8.38,.71-12.37,4.6,1.12,16.77,4.61,22.2,11.32,.27,.33,.77,.03,.59-.36-4.19-8.93-13.22-17.79-19.65-22.49,.37-1.22,.85-2.81,1.79-5.98,1.12-5.44,2.33-10.95,.34-20.05-.14-1.15-.27-2.2-.44-3.18-1.28-4.64-1.28-8.4-8.86-16.09Zm86.73-10.51c-7.03-2.32-12.82-3.99-17.43-4.41-4.49-.38-8.14-3.8-8.52-8.29l-7.38-56.03-24.79,3.38-1.76,.56,18.15,55.35c2.11,5.37,1.65,11.48-1.34,16.43-.01,.02-.03,.05-.04,.07-1.63,2.75-3.92,5.05-6.59,6.81-7.05,4.66-21.09,8.27-24.4,20.04,3.67-4.34,13.07-3.98,15.68-3.47-.15,1-.31,2.03-.42,3.19-2,9.1-.77,14.59,.35,20.04,.92,3.19,1.42,4.76,1.77,5.99,1.65,6.36,2.15,13.53,1.96,20.55-.19,6.94-2.87,13.68-7.82,18.55-7.59,7.47-14.12,20.19-13.49,23.47,1-7.26,15.74-17.31,18.5-19.16-1.15,5.45-2.5,9.52-3.45,11.09,17.81-16.74,13.28-53.55,11.06-62.5-1.84-7.74-1.23-13.72,.26-20.41,.57-2.57,2.63-6.15,4.54-7.95,2.16-2.04,4.48-4.56,5.95-6.33,.92-.81,3.15-3.95,5.57-7.83,.12,5.8,.5,10.71,1.15,14.93-7.52,5.95-12.94,19.08-14.05,24.3,5.07-8.48,12.55-13.44,15.93-15.39,1.15,3.92,2.54,6.99,4.15,9.68,.99,1.65,1.32,3.6,.93,5.49-1.26,6.11-3.68,13.54-8.11,19.58-5.8,7.68-10.83,21-10.21,32.02,1.77-7.33,6.37-12.86,10.94-18.23,.92,1.19,2.23,4.57,3.57,9.02,1.5,4.84,.73,10.02-1.69,14.47-5.45,10.02-9.25,25.03-9.75,31.36,.84-9.17,12.78-25.53,15.59-29.25,1.46,7.33,2.5,14.59,2.34,19.5,5.76-16.01,1.04-43.95-3.38-53.51,3.34-4.76,6.72-9.6,8.56-19.23,10.29,14.43,16.85,35.2,17.08,54.09,.04,.38-1.88,34.74-1.73,34.43,19-42.57,2.8-86.72-10.02-100.15-1.57-1.65-2.92-3.45-4.11-5.34,0-.15,.04-.31,0-.38h-.27c-6.87-11.29-7.45-25.57-7.45-30.86v-.77l-.04-.23h.04c.92,.08,1.88,.27,2.84,.54,5.87,1.65,9.79,6.91,10.48,12.98,3.19,27.37,26.5,37.67,29.73,39.47-8.79-10.56-23.43-33.4-16.84-40.93,1.75-2,15.12,11.14,16.27,13.52,0-4.07-4.51-25.66-18.3-30.22Zm121.91,26.61c-.17,.98-.3,2.03-.44,3.18-1.99,9.09-.78,14.61,.34,20.05,.95,3.18,1.42,4.77,1.79,5.98-6.42,4.7-12.17,11.93-16.36,20.86,0,0,8.28-11.99,18.71-12.16,2.88,6.01-.36,19.1,1.5,15.21,4.26-8.95,5.11-22.96,2.91-31.88-1.86-7.74-1.25-13.73,.27-20.42,.57-2.64,2.7-6.29,4.67-8.11,2.1-1.99,4.36-4.46,5.82-6.19,.91-.81,3.11-3.96,5.54-7.81,.14,5.78,.51,10.72,1.15,14.91-7.51,5.98-12.92,19.1-14.03,24.31,5.07-8.49,12.54-13.42,15.92-15.38,1.13,3.85,2.51,6.93,4.1,9.59,1,1.69,1.34,3.66,.94,5.59-1.25,6.09-3.65,13.51-8.09,19.54-5.78,7.71-23.48,26.6-7.14,58.9,.08,.16-.77-6.97-1.6-13.93-1.33-11.19,2.03-22.45,9.35-31.01l.14-.16c3.11,4.06,8.22,11.93,10.38,22.11,.07,.41,.64,.41,.68,0,.68-7.17,.03-20.96-4.4-30.53,3.35-4.73,6.73-9.6,8.55-19.2,10.32,14.45,18.47,40.55,21.21,53.82,.08,.36,.57,.35,.67,0,2.97-10.66-3.69-52.03-16.53-65.45-1.56-1.66-2.91-3.48-4.09-5.34,0-.17,.03-.3,0-.41h-.27c-6.86-11.29-7.47-25.56-7.47-30.87,0-.17,0-.3,.03-.47-.03-.1-.03-.2-.03-.27l-.03-.24h.07c.91,.07,1.86,.27,2.81,.54,5.88,1.66,9.8,6.9,10.51,12.98,3.18,27.35,37.49,58.12,53.01,59.4,.34,0,.51-.41,.27-.61-1.89-1.76-7.27-6.76-13.46-13.35,2.7-2.16,9.09-6.49,15.65-6.02,.57,.03,.81-.74,.24-.98-7.54-3.38-17.58-2.7-23.7-1.86-8.82-10.58-17.11-22.96-17.82-32.93-.17-2.06,1.86-3.62,3.82-2.84,2.47,.95,6.02,2.33,10.08,3.92,13.73,5.38,26.17,13.66,36.01,24.65,2.6,2.94,4.8,5.78,5.95,8.15,0-4.06-.3-12.37-4.56-19.2,1.93,.41,1.39,.27,3.38,.3,3.72,0,7.47-.03,10.72-.1,.57,0,1.05-.03,1.56-.03,5.58-.1,20.04,4,24.92,6.4-2.98-4.9-3.72-13.2-16.74-15.9-5.55-1.18-12.65-1.28-19.01-1.01-4.98,.21-9.9-.87-14.34-3.13-10.11-5.16-20.51-9.65-29.8-12.12-3.92-1.08-7.37-7.64-15.32-10.92-6.83-2.81-12.81-3.99-17.45-4.4-4.5-.37-8.11-3.82-8.52-8.28l-6.7-55.36-25.98,2.89,16.91,55.72c2.12,5.39,1.66,11.47-1.33,16.43-1.26,2.09-2.54,3.97-3.49,4.83,0,0-1.39,1.08-3.01,2.54-7.58,7.7-7.58,11.45-8.86,16.09Zm-7.59,72.17c-4.95-4.88-7.64-11.63-7.83-18.58-.19-6.99,.31-14.17,1.96-20.54,.35-1.23,.84-2.8,1.77-5.99,2.15-8.6,.08-22.23-.08-23.22-.19-2.84-3.76-11.44-8.71-16.58-2.23-2.3-4.95-4.07-6.6-6.79t-.04-.08c-2.99-4.95-3.45-11.06-1.34-16.43l18.16-55.36-1.77-.58-24.76-3.38-7.41,56.05c-.38,4.49-4.03,7.91-8.52,8.29-4.22,.38-8.6,2.46-11.82,7.91-12.48,2.88-24.99,16.08-27.1,20.35,7.18-7.22,18.73-9.71,22.84-10.4-1.57,4.65-2.88,9.25-3.95,12.02-3.65,9.29-9.6,18.85-18.54,29.29-11.52,13.4-27.41,28.87-15.01,62.11,.08,0,1.38-16.93,7.87-25.22,4.18,6.95,15.2,32.86,11.02,48.25,8.29-13.9,3.3-40-3.99-55.97-2.3-4.99-1.96-11.02,1.69-15.12t.08-.08c13.7-15.39,29.56-48.29,30.36-50.56,.96-2.57,3.69-11.06,10.48-12.98,.96-.27,1.92-.46,2.84-.54h.04l-.04,.23v.77c0,5.3-.58,19.58-7.45,30.86h-.27c-.04,.08,0,.23,0,.38-1.19,1.88-2.53,3.69-4.11,5.34-12.82,13.44-29.02,57.58-10.02,100.15,.15,.31-1.77-34.05-1.73-34.43,.23-18.89,6.79-39.65,17.08-54.09,1.84,9.64,5.22,14.47,8.56,19.23-4.41,9.56-9.14,37.5-3.38,53.51-.15-4.91,.88-12.17,2.34-19.5,2.8,3.72,14.74,20.08,15.59,29.25-.5-6.33-4.3-21.34-9.75-31.36-2.42-4.45-3.19-9.64-1.69-14.47,1.34-4.45,2.65-7.83,3.57-9.02,4.57,5.37,9.17,10.9,10.94,18.23,.61-11.02-4.41-24.34-10.21-32.02-4.41-6.03-6.83-13.47-8.1-19.58-.38-1.88-.08-3.84,.92-5.49,1.61-2.69,2.99-5.76,4.15-9.67,3.38,1.96,10.86,6.91,15.93,15.39-1.11-5.22-6.53-18.35-14.05-24.3,.65-4.22,1.04-9.14,1.15-14.93,2.42,3.88,4.65,7.03,5.57,7.83,1.46,1.77,3.8,4.3,5.95,6.33,1.92,1.8,3.99,5.37,4.53,7.95,1.5,6.72,2.11,12.67,.27,20.42-2.23,8.94-6.76,45.76,11.06,62.5-.96-1.57-2.3-5.64-3.45-11.09,2.76,1.84,17.5,11.9,18.5,19.16,.65-3.3-5.87-16.01-13.47-23.45Z"/>
    <path class="cls-3" d="M393.05,518.19c-.25,0-.5,0-.75-.01-18.72-.62-30.35-14.45-30.35-36.1,0-17.92,7.45-30.45,14.65-42.57,7.92-13.33,16.11-27.12,14.66-48.43-1.39-20.39-11.51-40.66-21.29-60.25-9.92-19.87-19.29-38.65-19.29-56.48s6.4-30.07,18.03-36.61c11.52-6.48,27.44-5.88,39.63,1.51,10.45,6.33,16.24,16.41,15.88,27.63,0,0,.56-14.41-17-25.78-11.33-7.34-26.59-7.58-37.45-1.47-7.72,4.35-16.93,13.9-16.93,34.73,0,17.33,9.26,35.88,19.06,55.52,9.87,19.78,20.09,40.24,21.51,61.07,1.5,21.98-6.86,36.07-14.95,49.68-7.38,12.41-14.35,24.14-14.35,41.47,0,20.35,10.83,33.36,28.26,33.94,16.19,.49,32.4-17.86,32.4-17.86-.6,.83-14.71,20.03-31.73,20.03Z"/>
    <path id="Center" class="cls-4" d="M408.08,283.41c1.53-2.84,2.38-6.01,2.38-9.42,0-10.83-8.79-19.62-19.62-19.62s-19.68,8.79-19.68,19.62,8.79,19.68,19.68,19.68c1.19,0,2.44-.11,3.57-.34-2.1,.62-4.31,.91-6.58,.91-13.44,0-24.39-10.95-24.39-24.39s10.95-24.39,24.39-24.39,24.39,10.89,24.39,24.39c0,4.99-1.53,9.7-4.14,13.56Zm5.55,199.38c2.1,2.95,2.8,6.5,2.24,9.85-.55,3.27-2.37,6.4-5.32,8.5l-7.98,5.69c-5.9,4.2-14.14,2.82-18.34-3.08-2.1-2.95-2.8-6.5-2.24-9.85,.55-3.27,2.37-6.4,5.32-8.5l7.98-5.69c5.9-4.2,14.14-2.82,18.34,3.08Zm-2.32,9.96c-.74-1.04-3.27-.55-5.61,1.12s-3.59,3.86-2.85,4.91c.77,1.08,3.27,.55,5.57-1.09,2.34-1.67,3.66-3.85,2.89-4.94Zm-16.54-230.64c-1.63,1.33-.72,5.14,2.02,8.52,2.75,3.38,6.3,5.04,7.93,3.71s.72-5.14-2.02-8.52c-2.75-3.38-6.3-5.04-7.93-3.71Z"/>
    <g id="Kids">
      <path id="Girl" class="cls-5" d="M568.33,406.55c-.1,2.72-.45,5.61-1.5,8.09-5.06,12.14-10.18,24.24-15.76,36.13-1.43,3.03-4.22,5.82-7.08,7.71-10.29,6.73-20.82,13.08-31.39,19.43-2.55,1.57-3.45,3.35-3.45,6.38,0,11.06-.59,22.15-.42,33.24,.03,4.57,.98,9.35,2.48,13.67,3.35,9.56,7.22,18.9,11.06,28.21,1.08,2.76,.45,4.05-2.16,5.02-.17,.03-.31,.1-.49,.17-2.82,1.05-5.75,1.85-8.75,2.2l-4.01,.49-18.07,2.2h-9.7c-.77,0-1.53-.03-2.27-.14l-15.62-2.06-1.6-.19c-4.13-.5-8.16-1.68-11.83-3.62-.98-.52-1.99-1.01-2.99-1.53,3.35-8.47,6.24-16.91,9.97-25.01,3.8-8.27,5.61-16.64,5.06-25.74-.52-9-.31-18.03-.1-27.03,.1-3.38-1.19-5.2-3.98-6.87-10.74-6.56-21.38-13.29-32.01-20.05-4.64-2.93-8.13-6.91-10.36-12.07-5.09-11.51-10.6-22.84-15.48-34.42-1.01-2.3-.84-5.86,.24-8.13,1.5-3.14,5.34-3.52,8.58-3.49,.94,0,2.13,1.6,2.72,2.72,.84,1.71,1.29,3.63,1.88,5.48,1.19-.59,2.27-1.12,3.56-1.78,2.44,3.28,.84,6.07-1.15,8.23-2.55,2.76-1.99,4.88-.14,7.6,4.6,6.77,8.93,13.71,13.46,20.47,.8,1.22,2.02,2.37,3.31,2.89,14.58,6.35,29.22,12.62,43.84,18.83,.35,.17,.8,.17,1.85,.35,.05-.27,.77-1.77,.93-3.48,.09-.96-.51-1.82-1.37-2.27-6.65-3.48-11.18-10.45-11.18-18.45,0-1.85,.24-3.66,.7-5.37-2.89,2.34-5.58,5.06-8.79,6.8-4.67,2.58-9.45,1.46-14.33-1.19,4.05-1.95,7.39-4.12,8.68-8.47-5.61,.66-8.34-.17-9.83-3.14,4.99,1.26,8.54-1.15,11.96-4.15,1.31-1.17,2.78-2.17,4.33-2.93,4.14-2.05,9.17-.79,12.1,2.79,.31,.38,.63,.77,1.01,1.22,3.8-3.98,9.14-6.42,15.07-6.42s11.13,2.41,14.89,6.28c.35-.38,.63-.73,.91-1.08,2.86-3.57,7.82-4.85,11.94-2.87,1.6,.77,3.13,1.8,4.48,3.01,3.42,3,6.97,5.41,11.96,4.15-1.5,2.96-4.22,3.8-9.83,3.14,1.29,4.36,4.64,6.52,8.68,8.47-4.88,2.65-9.66,3.77-14.33,1.19-3.07-1.71-5.68-4.25-8.47-6.52,.42,1.64,.63,3.35,.63,5.09,0,8.15-4.68,15.19-11.47,18.62-1.01,.51-1.6,1.58-1.38,2.69,.21,1.1,.5,2.17,.63,2.75,.63,.7,1.8,.15,3.19-.48,14.05-6.52,28.18-12.9,42.23-19.42,.84-.35,1.64-1.12,2.09-1.85,4.08-6.45,8.09-12.9,12.21-19.5,1.33-2.13,.94-4.88-.91-6.52-2.16-1.92-3.98-3.38-3.49-7.5,2.13,1.15,3.66,1.33,5.79,2.48,.07-1.78,.14-3.49,.24-5.16,.31-5.41,1.33-6.35,6.63-6.42,3.63-.03,6.66,3.07,6.42,7.11Z"/>
      <g id="Boy">
        <path class="cls-5" d="M381.94,404.46c-.13,2.72-.46,5.6-1.5,8.09-5.06,12.14-10.18,24.24-15.78,36.13-1.44,3.03-4.23,5.82-7.06,7.69-10.31,6.73-20.84,13.1-31.38,19.44-2.55,1.55-3.47,3.33-3.47,6.36,0,11.07-.61,22.14-.41,33.24,.04,4.58,.96,9.35,2.48,13.69,3.33,9.55,7.19,18.9,11.03,28.22,1.11,2.72,.48,4.03-2.14,4.99-.17,.07-.33,.13-.5,.17-2.81,1.07-5.75,1.87-8.76,2.22l-3.99,.48-18.09,2.18c-.68-.46-1.37-1.29-1.61-1.94-.02-.09-.07-.15-.09-.24-1.18-3.29-2.05-6.71-3.36-11.09-1.53,4.16-2.66,7.41-3.94,10.59-.07,.15-.13,.33-.24,.5-.44,.92-1.11,2.03-1.61,2.18l-16.74-2.18-2-.26c-4.04-.52-7.96-1.74-11.57-3.63-.93-.48-1.86-.97-2.85-1.45,3.33-8.46,6.25-16.91,9.98-25.02,3.79-8.26,5.6-16.63,5.06-25.74-.52-8.98-.33-18-.11-27,.09-3.4-1.2-5.21-3.97-6.89-10.74-6.54-21.4-13.29-32.02-20.03-4.66-2.94-8.13-6.93-10.37-12.07-5.1-11.51-10.59-22.84-15.47-34.41-1-2.33-.85-5.86,.24-8.15,1.48-3.12,5.32-3.51,8.59-3.47,.92,0,2.11,1.59,2.7,2.72,.85,1.68,1.29,3.6,1.9,5.47,1.2-.59,2.27-1.13,3.55-1.79,2.44,3.27,.83,6.08-1.16,8.24-2.53,2.75-1.98,4.88-.13,7.61,4.6,6.76,8.91,13.69,13.45,20.46,.81,1.2,2.03,2.35,3.33,2.9,14.58,6.34,29.2,12.6,43.83,18.83,.35,.15,.81,.15,1.83,.33,.09-.44,.22-.85,.31-1.29h.13c.17-1.44-.5-3.03-1.96-4.51-2.81-2.83-5.32-4.86-7-8.37-.15-.28-.5-1-1.18-1.68-1.18-1.18-2.31-1.13-3.44-1.66-3.18-1.44-3.77-6.04-4.08-8.59-.15-1.02-.15-2.07,.48-2.68,.41-.39,.76-.31,1.11-.59,1.16-.92-.26-4.47-.48-5.08-1.83-4.79-1.66-12.01-.28-16.76,.63-2.18,1.55-4.34,2.83-6.45,.22-.31,.26-.72,.54-1.53-1.61,.54-2.83,.96-4.38,1.5,2.01-4.47,5.36-6.39,9.87-6.84-.28-1.02-.5-1.83-.81-2.94,1.81,0,3.51-.44,4.93,.04,2.66,.92,5.06,.48,7.65-.13,13.38-3.16,27.87,4.45,31.71,16.48,1.53,4.82,.48,14.93-1.18,17.78-.2,.35-1.26,2.05-.63,3.27,.24,.48,.61,.61,.94,.94,1.44,1.35,.72,4.47,.54,5.06-.5,1.57-1,5.27-3.66,6.56-1.11,.57-2.14,.46-3.38,1.55-.78,.74-1.18,1.5-1.33,1.83-2.01,3.81-4.84,5.78-7.93,8.87-1.22,1.22-1.68,3.03-1.33,4.56,.65,.7,1.72,.68,3.12,.02,14.06-6.49,28.18-12.9,42.22-19.4,.85-.37,1.66-1.11,2.11-1.87,4.08-6.43,8.1-12.9,12.2-19.49,1.31-2.11,.94-4.87-.92-6.52-2.16-1.92-3.98-3.37-3.5-7.48,2.14,1.16,3.67,1.33,5.79,2.46,.09-1.77,.15-3.47,.26-5.17,.33-5.38,1.33-6.32,6.63-6.41,3.62-.04,6.65,3.07,6.43,7.13Z"/>
        <path class="cls-2" d="M324.82,528.72h-53.97v-.42h53.97v.42Z"/>
      </g>
    </g>
  </g>
</svg>