<?xml version="1.0" encoding="UTF-8"?>
<svg id="Artwork" xmlns="http://www.w3.org/2000/svg" viewBox="0 0 1616.59 700">
  <defs>
    <style>
      .cls-1 {
        fill: #573017;
      }

      .cls-2 {
        fill: #20331a;
      }

      .cls-3 {
        fill: #c8cdae;
      }

      .cls-4 {
        fill: #94a869;
      }

      .cls-5 {
        fill: #de8729;
      }
    </style>
  </defs>
  <g id="Icon">
    <path id="Sunlight" class="cls-2" d="M185.27,470.36c-27.77-32.85-44.56-75.28-44.56-121.6,0-103.95,84.59-188.54,188.54-188.54s188.51,84.59,188.51,188.54c0,46.32-16.79,88.75-44.56,121.6H185.27ZM402.14,27.04l-18.14,109.76c-.44,2.54-2.89,4.23-5.43,3.69l-1.02-.19c-2.54-.54-4.1-3.08-3.46-5.59l28.05-107.67Zm65.7,21.89l-40.57,103.57c-.95,2.41-3.72,3.56-6.07,2.51l-.95-.44c-2.38-1.05-3.37-3.84-2.22-6.16l49.81-99.47Zm59.73,35.04l-61.22,92.89c-1.43,2.16-4.38,2.7-6.48,1.18l-.83-.6c-2.1-1.52-2.51-4.51-.89-6.51l69.42-86.95Zm51.12,46.73l-79.2,78.12c-1.84,1.81-4.83,1.72-6.58-.22l-.7-.76c-1.72-1.94-1.49-4.89,.51-6.54l85.97-70.59Zm40.28,56.3l-93.72,59.95c-2.16,1.4-5.08,.7-6.35-1.56l-.54-.89c-1.3-2.26-.44-5.12,1.84-6.32l98.77-51.18Zm27.7,63.48l-104.14,39.14c-2.41,.92-5.11-.38-5.91-2.83l-.32-1.02c-.79-2.45,.64-5.08,3.11-5.78l107.25-29.51Zm13.92,67.83l-110.02,16.65c-2.54,.38-4.89-1.43-5.18-4l-.1-1.05c-.29-2.57,1.65-4.86,4.23-5.02l111.07-6.58Zm-.51,69.26l-111.07-6.61c-2.57-.16-4.51-2.41-4.23-4.99l.1-1.05c.29-2.57,2.64-4.42,5.21-4l109.99,16.65Zm-14.9,67.61l-107.25-29.51c-2.48-.7-3.91-3.34-3.11-5.78l.32-1.02c.79-2.45,3.49-3.75,5.91-2.83l104.14,39.14ZM122.44,421.05l-107.29,29.55,104.14-39.17c2.41-.89,5.11,.38,5.91,2.86l.35,.98c.79,2.48-.64,5.08-3.11,5.78Zm-10.13-44.89L1.27,382.73l109.99-16.65c2.57-.38,4.92,1.46,5.21,4.03l.1,1.02c.29,2.57-1.65,4.86-4.26,5.02Zm4.77-51.05l-.1,1.02c-.29,2.57-2.64,4.42-5.21,4.03L1.78,313.51l111.03,6.58c2.61,.16,4.51,2.45,4.26,5.02Zm9.98-43.91l-.35,.98c-.79,2.45-3.49,3.75-5.91,2.86L16.65,245.87l107.29,29.55c2.48,.67,3.91,3.3,3.11,5.78Zm18.87-40.89l-.54,.92c-1.3,2.22-4.19,2.92-6.39,1.52l-93.72-59.95,98.8,51.21c2.29,1.18,3.11,4.03,1.84,6.29Zm26.94-36.06l-.7,.76c-1.72,1.94-4.7,2.03-6.54,.22L86.38,127.11l86,70.59c2,1.65,2.22,4.61,.48,6.54Zm33.87-29.67l-.86,.64c-2.07,1.49-5.02,.98-6.45-1.18l-61.22-92.89,69.42,86.92c1.62,2.03,1.21,4.99-.89,6.51Zm39.3-21.98l-.95,.44c-2.38,1.05-5.15-.1-6.07-2.51l-40.6-103.57,49.85,99.47c1.14,2.32,.13,5.11-2.22,6.16Zm43.02-13.31l-1.05,.22c-2.51,.54-4.99-1.14-5.4-3.72l-18.17-109.76,28.05,107.67c.67,2.51-.92,5.05-3.43,5.59Zm49.37-8.83c.1,2.57-1.97,4.73-4.54,4.73h-1.05c-2.6,0-4.67-2.16-4.54-4.73l5.05-111.16,5.08,111.16Z"/>
    <path class="cls-1" d="M92.3,485.61c5.54-2.58-63.44,4.63-66.96,6.4,3.06-2.58,37.8-13.46,45.22-13.82H218.42s-4.07,13.84-4.07,13.84c-.99,3.36-2.39,6.62-4.4,9.49-3.1,4.42-7.43,7.73-15.8,8.62-.06,0-21.24-2.09-27.94,2.06-6.73,4.15-17.08,8.63-32.31,26.95-1.34-2.94-2.4-12.6,2.63-19.18-2.81-1.04-12.63-2.76-17.81-.33-5.16,2.43-44.86,35.73-48.66,31.93-2.99-2.96,20.88-24.52,35.17-35.5,5.52-4.23,12.22-6.4,19.13-6.33,4.71,.05,9.82,.23,13.49,.35,3.37,.13,6.71-.53,9.74-1.95l13.99-6.5c2.96-1.34,6.12-2.1,9.34-2.2l15.08-.73c4.28-.13,8.91-8.12,8.17-13.97h-60.27s-3.42,0-10.5,0c-2.43,0-4.58,.1-6.33,.2-3.62,.25-7.09,1.64-9.82,4.02-12.6,10.7-51.9,43.42-60.02,40.66,4.68-6.73,39.53-41.42,45.07-44.03Zm266.09,22.85c2.83,1.2,16.26,21.95,12.9,30.69-5.12-7.78-10.47-13.07-15.5-16.93-1.23,3.03-2.89,5.95-5.12,7.58,.73,2.63,1.86,8.11-.53,12.27-3.26,5.69-3.43,12.37,0,17.72-4.09-3.26-6.35-12.37-4.56-17.39,1.33-3.76,1.23-7.85,.93-10.18-3.62,1.93-7.85,4.16-9.21,6.98,1.33-4.29,4.02-9.21,9.88-12.94,2.33-1.5,3.72-4.12,4.59-6.85-5.15-3.36-9.71-5.32-12.8-7.22-1.8-1.1-4.66-1.76-7.85-2.16-3.23,.37-6.05,1.03-7.88,2.16-2.63,1.6-5.79,3.26-9.58,5.82,.53,5.55,2.29,15.1,8.45,18.99,9.11,5.82,13,13.67,14.9,20.18-.96-3.72-5.45-6.78-10.18-9.44-.93,4.85-3.13,18.42-.13,21.61-2.93-1.9-7.42-13.83-7.61-25.8-.67-.4-1.3-.76-1.86-1.16-5.42-3.76-8.71-13.13-10.34-19.39-4.59,3.72-9.88,8.81-15.93,16.13-1.76-12.44,10.08-29.49,12.87-30.69-3.96-1.6-6.55-4.02-8.58-6.95-2.03-2.86-3.43-6.12-4.42-9.48l-2.13-7.28-1.93-6.55h88.72l-1.93,6.55-2.16,7.28c-1,3.36-2.39,6.62-4.39,9.48-2.06,2.93-4.66,5.39-8.61,6.95Zm-7.18-23.71h-40.17c-.76,5.85,3.89,13.83,8.15,13.97l11.94,.57,11.9-.57c4.29-.13,8.91-8.11,8.18-13.97Zm218.36,.86c-5.54-2.58,63.44,4.63,66.96,6.4-3.06-2.58-37.8-13.46-45.22-13.82h-147.86s4.07,13.84,4.07,13.84c.99,3.36,2.39,6.62,4.4,9.49,3.1,4.42,7.43,7.73,15.8,8.62,.06,0,21.24-2.09,27.94,2.06,6.73,4.15,17.08,8.63,32.31,26.95,1.34-2.94,2.4-12.6-2.63-19.18,2.81-1.04,12.63-2.76,17.81-.33,5.16,2.43,44.86,35.73,48.66,31.93,2.99-2.96-20.88-24.52-35.17-35.5-5.52-4.23-12.22-6.4-19.13-6.33-4.71,.05-9.82,.23-13.49,.35-3.37,.13-6.71-.53-9.74-1.95l-13.99-6.5c-2.96-1.34-6.12-2.1-9.34-2.2l-15.08-.73c-4.28-.13-8.91-8.12-8.17-13.97h60.27s3.42,0,10.5,0c2.43,0,4.58,.1,6.33,.2,3.62,.25,7.09,1.64,9.82,4.02,12.6,10.7,51.9,43.42,60.02,40.66-4.68-6.73-39.53-41.42-45.07-44.03Zm-355.63,41.62c0-.63,.05-1.24,.14-1.86,.35-2.25,1.4-8.46-.11-8.65-4.48-.59-8.85-1-10.61-1.13,0,0-4.99-.53-8.11-.53-2.16,0-4.89,.43-5.49,.57-1.43,.3-2.89,.6-4.36,.93-.4,.07-.8,.17-1.23,.27-1.7,.43-3.36,.86-4.89,1.33-.4,.13-.73,.23-1.06,.33-.37,.1-.7,.23-1.03,.37-.7,.23-1.3,.47-1.9,.67-.3,.17-.63,.3-.9,.4-6.85,3.09-13.63,12.14-16.79,16.79-1.13,1.7-3.09,2.69-5.15,2.63-5.05-.13-19.22,.37-25.57,2.26-8.94,2.63-38.04,25.9-39.84,29.5,2.76,.47,34.85-20.22,43.43-22.01,3.79-.8,23.54-2.89,28-3.92,1.2-.3,2.23-.93,3.09-1.86,5.79-6.28,15.53-14.53,20.42-16.93,6.25-3.09,11.7-2.36,13.43-2.36,.37,0,4.62,.5,8.31,.96,.7,.1,1.26,.6,1.4,1.26l.03,.07v4.76c.13,.6,.13,1.2,0,1.76-.43,1.8-2.09,3.19-4.12,3.06-1.93-.17-6.12,.27-6.28,.3-.17,.03-7.98,1.07-11.94,2.83-3.17,1.41-14.96,11.67-17.66,15.63-1,1.46-2.66,2.33-4.46,2.26-4.32-.1-12.54-.03-17.96,1.6-7.68,2.26-15.4,14.27-16.93,17.36,2.39,.4,8.98-4.79,13.2-8.38,2.56-2.16,5.72-3.46,9.08-3.69,5.52-.33,13.97-1,17.76-1.86,1.03-.27,1.93-.8,2.66-1.6,4.99-5.42,13.33-12.47,17.56-14.56,5.35-2.63,10.04-2,11.51-2,.33,0,3.62,.5,8.88-1.16,3.66-1.2,6.65-4.29,7.25-9.98,.03-.13,.1-.73,.23-1.56v-3.81Zm232.69,3.81c.13,.83,.2,1.43,.23,1.56,.6,5.69,3.59,8.78,7.25,9.98,5.25,1.66,8.55,1.16,8.88,1.16,1.46,0,6.15-.63,11.51,2,4.22,2.09,12.57,9.14,17.56,14.56,.73,.8,1.63,1.33,2.66,1.6,3.79,.86,12.24,1.53,17.76,1.86,3.36,.23,6.52,1.53,9.08,3.69,4.22,3.59,10.81,8.78,13.2,8.38-1.53-3.09-9.24-15.1-16.93-17.36-5.42-1.63-13.63-1.7-17.96-1.6-1.8,.07-3.46-.8-4.46-2.26-2.69-3.96-14.48-14.22-17.66-15.63-3.96-1.76-11.77-2.79-11.94-2.83-.17-.03-4.36-.47-6.28-.3-2.03,.13-3.69-1.26-4.12-3.06-.13-.57-.13-1.16,0-1.76v-4.76s.03-.07,.03-.07c.13-.66,.7-1.16,1.4-1.26,3.69-.47,7.95-.96,8.31-.96,1.73,0,7.18-.73,13.43,2.36,4.89,2.39,14.63,10.64,20.42,16.93,.86,.93,1.9,1.56,3.09,1.86,4.46,1.03,24.21,3.13,28,3.92,8.58,1.8,40.67,22.48,43.43,22.01-1.8-3.59-30.89-26.87-39.84-29.5-6.35-1.9-20.52-2.39-25.57-2.26-2.06,.07-4.02-.93-5.15-2.63-3.16-4.66-9.94-13.7-16.79-16.79-.27-.1-.6-.23-.9-.4-.6-.2-1.2-.43-1.9-.67-.33-.13-.66-.27-1.03-.37-.33-.1-.66-.2-1.06-.33-1.53-.47-3.19-.9-4.89-1.33-.43-.1-.83-.2-1.23-.27-1.46-.33-2.93-.63-4.36-.93-.6-.13-3.33-.57-5.49-.57-3.13,0-8.11,.53-8.11,.53-1.76,.13-6.13,.54-10.61,1.13-1.51,.2-.46,6.41-.11,8.65,.1,.62,.14,1.24,.14,1.86v3.81Zm-211.15,35.44c-1.41-1.26-2.61-2.2-2.61-2.2-.82-.74-1.93-2.37-3.02-4.18-2.59-4.3-2.99-9.57-1.15-14.24l14.65-48.27-22.51-2.5-5.8,47.95c-.35,3.87-3.49,6.85-7.38,7.18-4.01,.35-9.2,1.38-15.11,3.81-6.88,2.84-9.87,8.52-13.27,9.46-8.05,2.14-17.06,6.02-25.82,10.5-3.84,1.96-8.11,2.9-12.42,2.71-5.51-.23-11.66-.15-16.47,.88-11.28,2.34-23.78,18.68-26.36,22.93,3.37,.88,13.44-5.8,19.97-10.48,3.95-2.75,8.64-4.31,13.47-4.22,.44,0,.85,.03,1.35,.03,2.81,.06,6.06,.09,9.28,.09,1.73-.03,1.26,.09,2.93-.26-3.69,5.92-3.95,13.12-3.95,16.63,1-2.05,2.9-4.51,5.15-7.06,8.52-9.52,19.3-16.69,31.19-21.35,3.51-1.38,6.59-2.58,8.73-3.4,1.7-.67,3.46,.67,3.31,2.46-.62,8.64-7.79,19.36-15.43,28.53-5.3-.73-14-1.32-20.53,1.61-.5,.21-.29,.88,.21,.85,5.68-.41,11.22,3.34,13.56,5.21-5.36,5.71-10.02,10.05-11.66,11.57-.21,.18-.06,.53,.23,.53,13.44-1.11,43.17-27.76,45.92-51.46,.62-5.27,4.01-9.81,9.11-11.25,.82-.23,1.64-.41,2.43-.47h.06l-.03,.21c0,.06,0,.15-.03,.23,.03,.15,.03,.26,.03,.41,0,4.6-.53,16.96-6.47,26.74h-.23c-.03,.09,0,.21,0,.35-1.03,1.61-2.2,3.19-3.54,4.63-11.13,11.62-16.9,47.46-14.32,56.69,.09,.31,.52,.32,.58,0,2.37-11.5,9.43-34.11,18.37-46.62,1.58,8.32,4.51,12.53,7.41,16.63-3.84,8.29-4.39,20.24-3.81,26.45,.03,.35,.53,.35,.59,0,1.87-8.82,6.3-15.64,8.99-19.15l.12,.14c6.34,7.42,9.25,17.17,8.1,26.86-.72,6.03-1.46,12.21-1.39,12.07,14.16-27.98-1.17-44.34-6.18-51.02-3.84-5.22-5.92-11.65-7.01-16.93-.34-1.67-.05-3.38,.82-4.84,1.37-2.31,2.57-4.98,3.55-8.31,2.93,1.7,9.4,5.97,13.79,13.33-.97-4.51-5.65-15.87-12.15-21.06,.56-3.63,.88-7.91,1-12.92,2.11,3.34,4.01,6.06,4.8,6.77,1.26,1.49,3.22,3.63,5.04,5.36,1.7,1.58,3.54,4.74,4.04,7.03,1.32,5.8,1.84,10.98,.23,17.69-1.9,7.73-1.9,22.76,1.99,27.85,.18,.26,.59,.09,.53-.23-.62-3.69-.21-7.26,.61-10.72,3.99,.97,14.53,3.99,19.23,9.8,.23,.29,.67,.02,.51-.31-3.63-7.73-11.45-15.41-17.02-19.48,.32-1.05,.73-2.43,1.55-5.18,.97-4.72,2.02-9.49,.29-17.37-.12-1-.23-1.9-.38-2.75-1.11-4.02-1.11-7.27-7.67-13.94Zm75.13-9.11c-6.09-2.01-11.11-3.46-15.1-3.82-3.89-.33-7.05-3.29-7.38-7.18l-6.4-48.53-21.47,2.93-1.53,.49,15.72,47.95c1.83,4.66,1.43,9.94-1.16,14.23-.01,.02-.02,.04-.04,.06-1.42,2.38-3.4,4.37-5.71,5.9-6.11,4.04-18.27,7.17-21.14,17.36,3.17-3.76,11.33-3.45,13.58-3.01-.13,.86-.27,1.76-.37,2.76-1.73,7.88-.67,12.64,.3,17.36,.8,2.76,1.23,4.12,1.53,5.19,1.43,5.51,1.86,11.72,1.7,17.8-.16,6.01-2.49,11.85-6.77,16.07-6.58,6.47-12.23,17.49-11.68,20.33,.86-6.28,13.63-15,16.03-16.59-1,4.72-2.16,8.25-2.99,9.61,15.43-14.5,11.51-46.39,9.58-54.13-1.59-6.7-1.07-11.88,.22-17.68,.49-2.22,2.27-5.33,3.93-6.89,1.87-1.77,3.89-3.95,5.16-5.49,.8-.7,2.73-3.43,4.82-6.78,.1,5.02,.43,9.28,1,12.94-6.52,5.15-11.21,16.53-12.17,21.05,4.39-7.35,10.87-11.64,13.8-13.33,1,3.39,2.2,6.05,3.59,8.38,.86,1.43,1.14,3.12,.8,4.75-1.1,5.29-3.19,11.73-7.02,16.96-5.02,6.65-9.38,18.19-8.85,27.73,1.53-6.35,5.52-11.14,9.48-15.79,.8,1.03,1.93,3.96,3.09,7.81,1.3,4.19,.63,8.68-1.46,12.54-4.72,8.68-8.01,21.68-8.45,27.17,.73-7.95,11.07-22.11,13.5-25.34,1.26,6.35,2.16,12.64,2.03,16.89,4.99-13.87,.9-38.07-2.93-46.35,2.89-4.12,5.82-8.31,7.42-16.66,8.91,12.5,14.6,30.49,14.8,46.85,.03,.33-1.63,30.09-1.5,29.83,16.46-36.88,2.43-75.12-8.68-86.76-1.36-1.43-2.53-2.99-3.56-4.62,0-.13,.03-.27,0-.33h-.23c-5.95-9.78-6.45-22.15-6.45-26.73v-.67l-.03-.2h.03c.8,.07,1.63,.23,2.46,.47,5.09,1.43,8.48,5.99,9.08,11.24,2.76,23.71,22.96,32.63,25.75,34.19-7.61-9.14-20.29-28.93-14.58-35.46,1.52-1.73,13.1,9.65,14.1,11.71,0-3.52-3.9-22.23-15.85-26.17Zm105.6,23.05c-.15,.85-.26,1.76-.38,2.75-1.73,7.88-.67,12.65,.29,17.37,.82,2.75,1.23,4.13,1.55,5.18-5.57,4.07-10.54,10.34-14.17,18.07,0,0,7.17-10.39,16.21-10.54,2.49,5.2-.31,16.55,1.3,13.17,3.69-7.75,4.42-19.89,2.52-27.62-1.61-6.71-1.08-11.89,.23-17.69,.5-2.28,2.34-5.45,4.04-7.03,1.82-1.73,3.78-3.87,5.04-5.36,.79-.7,2.69-3.43,4.8-6.77,.12,5.01,.44,9.28,1,12.92-6.5,5.18-11.19,16.55-12.15,21.06,4.39-7.35,10.87-11.63,13.79-13.33,.98,3.33,2.18,6,3.55,8.31,.87,1.46,1.16,3.17,.82,4.84-1.08,5.28-3.16,11.71-7.01,16.93-5.01,6.68-20.34,23.05-6.18,51.02,.07,.14-.67-6.04-1.39-12.07-1.15-9.69,1.75-19.44,8.1-26.86l.12-.14c2.69,3.51,7.12,10.34,8.99,19.15,.06,.35,.56,.35,.59,0,.59-6.21,.03-18.16-3.81-26.45,2.9-4.1,5.83-8.32,7.41-16.63,8.94,12.52,16,35.12,18.37,46.62,.07,.32,.49,.31,.58,0,2.57-9.23-3.2-45.07-14.32-56.69-1.35-1.44-2.52-3.02-3.54-4.63,0-.15,.03-.26,0-.35h-.23c-5.95-9.78-6.47-22.14-6.47-26.74,0-.15,0-.26,.03-.41-.03-.09-.03-.18-.03-.23l-.03-.21h.06c.79,.06,1.61,.23,2.43,.47,5.1,1.44,8.49,5.97,9.11,11.25,2.75,23.69,32.48,50.34,45.92,51.46,.29,0,.44-.35,.23-.53-1.64-1.52-6.3-5.86-11.66-11.57,2.34-1.87,7.88-5.62,13.56-5.21,.5,.03,.7-.64,.21-.85-6.53-2.93-15.23-2.34-20.53-1.61-7.64-9.17-14.82-19.89-15.43-28.53-.15-1.79,1.61-3.13,3.31-2.46,2.14,.82,5.21,2.02,8.73,3.4,11.89,4.66,22.67,11.83,31.19,21.35,2.26,2.55,4.16,5.01,5.15,7.06,0-3.51-.26-10.72-3.95-16.63,1.67,.35,1.2,.23,2.93,.26,3.22,0,6.47-.03,9.28-.09,.5,0,.91-.03,1.35-.03,4.83-.09,17.36,3.46,21.59,5.55-2.58-4.25-3.22-11.43-14.5-13.78-4.81-1.03-10.96-1.11-16.47-.88-4.31,.18-8.58-.75-12.42-2.71-8.75-4.47-17.77-8.36-25.82-10.5-3.4-.94-6.38-6.62-13.27-9.46-5.92-2.43-11.1-3.46-15.11-3.81-3.9-.32-7.03-3.31-7.38-7.18l-5.8-47.95-22.51,2.5,14.65,48.27c1.84,4.67,1.44,9.94-1.15,14.24-1.09,1.81-2.2,3.44-3.02,4.18,0,0-1.2,.94-2.61,2.2-6.56,6.67-6.56,9.92-7.67,13.94Zm-6.58,62.51c-4.29-4.22-6.62-10.08-6.78-16.09-.17-6.05,.27-12.27,1.7-17.79,.3-1.06,.73-2.43,1.53-5.19,1.86-7.45,.07-19.25-.07-20.12-.17-2.46-3.26-9.91-7.55-14.37-1.93-2-4.29-3.52-5.72-5.89t-.03-.07c-2.59-4.29-2.99-9.58-1.16-14.23l15.73-47.95-1.53-.5-21.45-2.93-6.42,48.55c-.33,3.89-3.49,6.85-7.38,7.18-3.66,.33-7.45,2.13-10.24,6.85-10.81,2.49-21.65,13.93-23.48,17.62,6.22-6.25,16.23-8.41,19.79-9.01-1.36,4.02-2.49,8.01-3.43,10.41-3.16,8.05-8.31,16.33-16.06,25.37-9.98,11.61-23.74,25.01-13,53.8,.07,0,1.2-14.66,6.82-21.85,3.62,6.02,13.17,28.46,9.54,41.8,7.18-12.04,2.86-34.65-3.46-48.48-2-4.32-1.7-9.54,1.46-13.1t.07-.07c11.87-13.33,25.6-41.83,26.3-43.79,.83-2.23,3.19-9.58,9.08-11.24,.83-.23,1.66-.4,2.46-.47h.03l-.03,.2v.67c0,4.59-.5,16.96-6.45,26.73h-.23c-.03,.07,0,.2,0,.33-1.03,1.63-2.19,3.19-3.56,4.62-11.11,11.64-25.14,49.88-8.68,86.76,.13,.27-1.53-29.49-1.5-29.83,.2-16.36,5.89-34.35,14.8-46.85,1.6,8.35,4.52,12.54,7.42,16.66-3.82,8.28-7.91,32.49-2.93,46.35-.13-4.26,.76-10.54,2.03-16.89,2.43,3.23,12.77,17.39,13.5,25.34-.43-5.49-3.72-18.49-8.45-27.17-2.09-3.86-2.76-8.35-1.46-12.54,1.16-3.86,2.29-6.78,3.09-7.81,3.96,4.66,7.95,9.44,9.48,15.79,.53-9.54-3.82-21.08-8.85-27.73-3.82-5.22-5.92-11.67-7.02-16.96-.33-1.63-.07-3.33,.8-4.76,1.4-2.33,2.59-4.99,3.59-8.38,2.93,1.7,9.41,5.99,13.8,13.33-.96-4.52-5.65-15.89-12.17-21.05,.57-3.66,.9-7.91,1-12.94,2.09,3.36,4.02,6.09,4.82,6.78,1.26,1.53,3.29,3.72,5.15,5.49,1.66,1.56,3.46,4.66,3.92,6.88,1.3,5.82,1.83,10.97,.23,17.69-1.93,7.75-5.85,39.64,9.58,54.13-.83-1.36-2-4.89-2.99-9.61,2.39,1.6,15.16,10.31,16.03,16.59,.57-2.86-5.09-13.87-11.67-20.32Z"/>
    <path class="cls-3" d="M333.95,461.42c-.22,0-.43,0-.65-.01-16.22-.54-26.29-12.52-26.29-31.27,0-15.52,6.45-26.38,12.69-36.88,6.86-11.55,13.96-23.49,12.69-41.95-1.21-17.67-9.97-35.22-18.44-52.19-8.59-17.22-16.71-33.48-16.71-48.93s5.55-26.04,15.62-31.72c9.98-5.62,23.77-5.09,34.33,1.31,9.05,5.49,14.06,14.21,13.75,23.94,0,0,.49-12.48-14.72-22.33-9.81-6.36-23.03-6.57-32.44-1.27-6.69,3.77-14.66,12.04-14.66,30.08,0,15.01,8.02,31.08,16.51,48.09,8.55,17.14,17.4,34.86,18.63,52.9,1.3,19.04-5.95,31.24-12.95,43.03-6.39,10.75-12.43,20.91-12.43,35.92,0,17.63,9.38,28.89,24.48,29.4,14.02,.43,28.07-15.47,28.07-15.47-.52,.72-12.75,17.35-27.48,17.35Z"/>
    <path id="Center" class="cls-4" d="M346.97,258.05c1.33-2.46,2.06-5.21,2.06-8.16,0-9.38-7.62-17-17-17s-17.05,7.62-17.05,17,7.62,17.05,17.05,17.05c1.03,0,2.11-.1,3.1-.29-1.82,.54-3.73,.79-5.7,.79-11.64,0-21.13-9.48-21.13-21.13s9.48-21.13,21.13-21.13,21.13,9.43,21.13,21.13c0,4.32-1.33,8.4-3.59,11.74Zm4.8,172.71c1.82,2.55,2.43,5.63,1.94,8.53-.48,2.83-2.06,5.54-4.61,7.36l-6.91,4.92c-5.11,3.64-12.25,2.44-15.89-2.67-1.82-2.55-2.43-5.63-1.94-8.53,.48-2.83,2.05-5.54,4.61-7.36l6.91-4.92c5.11-3.64,12.25-2.44,15.89,2.67Zm-2.01,8.63c-.64-.9-2.83-.48-4.86,.97s-3.11,3.35-2.47,4.25c.67,.94,2.83,.48,4.82-.94s3.17-3.34,2.5-4.28Zm-14.33-199.78c-1.41,1.15-.63,4.45,1.75,7.38,2.38,2.93,5.46,4.36,6.87,3.21,1.41-1.15,.63-4.45-1.75-7.38-2.38-2.93-5.46-4.36-6.87-3.21Z"/>
    <g id="Kids">
      <path id="Girl" class="cls-5" d="M485.78,364.71c-.09,2.36-.39,4.86-1.3,7.01-4.38,10.51-8.82,21-13.65,31.3-1.24,2.63-3.66,5.04-6.13,6.68-8.91,5.83-18.03,11.33-27.19,16.83-2.21,1.36-2.99,2.9-2.99,5.53,0,9.58-.51,19.18-.36,28.79,.03,3.96,.85,8.1,2.14,11.84,2.9,8.28,6.25,16.37,9.58,24.44,.94,2.39,.39,3.5-1.87,4.35-.15,.03-.27,.09-.42,.15-2.45,.91-4.98,1.6-7.58,1.9l-3.47,.42-15.65,1.9h-8.4c-.66,0-1.33-.03-1.96-.12l-13.53-1.78-1.38-.17c-3.58-.43-7.06-1.46-10.25-3.13-.85-.45-1.72-.87-2.59-1.32,2.9-7.34,5.41-14.65,8.64-21.66,3.29-7.16,4.86-14.41,4.38-22.29-.45-7.79-.27-15.62-.09-23.41,.09-2.93-1.03-4.5-3.44-5.95-9.3-5.68-18.52-11.51-27.73-17.37-4.02-2.54-7.04-5.98-8.97-10.45-4.41-9.97-9.18-19.79-13.41-29.82-.88-1.99-.72-5.08,.21-7.04,1.3-2.72,4.62-3.05,7.43-3.02,.82,0,1.84,1.39,2.36,2.36,.72,1.48,1.12,3.14,1.63,4.74,1.03-.51,1.96-.97,3.08-1.54,2.11,2.84,.72,5.26-1,7.13-2.21,2.39-1.72,4.23-.12,6.59,3.99,5.86,7.73,11.87,11.66,17.73,.69,1.06,1.75,2.05,2.87,2.51,12.63,5.5,25.32,10.94,37.97,16.31,.3,.15,.69,.15,1.6,.3,.05-.23,.67-1.53,.81-3.02,.08-.83-.45-1.58-1.18-1.97-5.76-3.01-9.68-9.06-9.68-15.98,0-1.6,.21-3.17,.6-4.65-2.51,2.02-4.83,4.38-7.61,5.89-4.05,2.24-8.19,1.27-12.42-1.03,3.5-1.69,6.4-3.56,7.52-7.34-4.86,.57-7.22-.15-8.52-2.72,4.32,1.09,7.4-1,10.36-3.59,1.13-1.01,2.41-1.88,3.75-2.54,3.59-1.77,7.95-.68,10.48,2.42,.27,.33,.54,.66,.88,1.06,3.29-3.44,7.91-5.56,13.05-5.56s9.64,2.08,12.9,5.44c.3-.33,.54-.63,.79-.94,2.47-3.09,6.78-4.21,10.34-2.48,1.39,.67,2.71,1.56,3.88,2.61,2.96,2.6,6.04,4.68,10.36,3.59-1.3,2.57-3.66,3.29-8.52,2.72,1.12,3.78,4.02,5.65,7.52,7.34-4.23,2.3-8.37,3.26-12.42,1.03-2.66-1.48-4.92-3.69-7.34-5.65,.36,1.42,.54,2.9,.54,4.41,0,7.06-4.05,13.16-9.94,16.12-.87,.44-1.38,1.37-1.2,2.33,.18,.95,.43,1.88,.54,2.39,.54,.6,1.56,.13,2.77-.42,12.17-5.65,24.41-11.18,36.58-16.83,.72-.3,1.42-.97,1.81-1.6,3.53-5.59,7.01-11.18,10.57-16.89,1.15-1.84,.82-4.23-.79-5.65-1.87-1.66-3.44-2.93-3.02-6.49,1.84,1,3.17,1.15,5.01,2.14,.06-1.54,.12-3.02,.21-4.47,.27-4.68,1.15-5.5,5.74-5.56,3.14-.03,5.77,2.66,5.56,6.16Z"/>
      <g id="Boy">
        <path class="cls-5" d="M324.33,362.9c-.11,2.36-.4,4.85-1.3,7-4.38,10.52-8.82,20.99-13.67,31.3-1.25,2.62-3.66,5.04-6.12,6.66-8.93,5.83-18.05,11.35-27.19,16.84-2.21,1.34-3,2.89-3,5.51,0,9.59-.53,19.18-.36,28.79,.04,3.96,.83,8.1,2.15,11.86,2.89,8.27,6.23,16.37,9.55,24.45,.96,2.36,.42,3.49-1.85,4.32-.15,.06-.28,.11-.43,.15-2.44,.93-4.98,1.62-7.59,1.93l-3.45,.42-15.67,1.89c-.59-.4-1.19-1.11-1.4-1.68-.02-.08-.06-.13-.08-.21-1.02-2.85-1.77-5.81-2.91-9.61-1.32,3.61-2.3,6.42-3.42,9.17-.06,.13-.11,.28-.21,.43-.38,.79-.96,1.76-1.4,1.89l-14.5-1.89-1.73-.22c-3.5-.45-6.89-1.51-10.02-3.14-.8-.42-1.61-.84-2.47-1.26,2.89-7.32,5.42-14.65,8.65-21.67,3.28-7.15,4.85-14.4,4.38-22.3-.45-7.78-.28-15.59-.09-23.39,.08-2.95-1.04-4.51-3.44-5.97-9.31-5.66-18.54-11.52-27.73-17.35-4.04-2.55-7.04-6-8.99-10.46-4.42-9.97-9.17-19.78-13.4-29.81-.87-2.02-.74-5.08,.21-7.06,1.28-2.7,4.61-3.04,7.44-3,.79,0,1.83,1.38,2.34,2.36,.74,1.45,1.11,3.11,1.64,4.74,1.04-.51,1.96-.98,3.08-1.55,2.11,2.83,.72,5.27-1,7.14-2.19,2.38-1.72,4.23-.11,6.59,3.98,5.85,7.72,11.86,11.65,17.73,.7,1.04,1.76,2.04,2.89,2.51,12.63,5.49,25.3,10.91,37.96,16.31,.3,.13,.7,.13,1.59,.28,.08-.38,.19-.74,.26-1.11h.11c.15-1.25-.43-2.62-1.7-3.91-2.44-2.45-4.61-4.21-6.06-7.25-.13-.25-.43-.87-1.02-1.45-1.02-1.02-2-.98-2.98-1.43-2.76-1.25-3.27-5.23-3.53-7.44-.13-.89-.13-1.79,.42-2.32,.36-.34,.66-.26,.96-.51,1-.79-.23-3.87-.42-4.4-1.59-4.15-1.43-10.4-.25-14.52,.55-1.89,1.34-3.76,2.45-5.59,.19-.26,.23-.62,.47-1.32-1.4,.47-2.45,.83-3.79,1.3,1.74-3.87,4.64-5.53,8.55-5.93-.25-.89-.43-1.59-.7-2.55,1.57,0,3.04-.38,4.27,.04,2.3,.79,4.38,.42,6.63-.11,11.59-2.74,24.15,3.85,27.47,14.27,1.32,4.17,.42,12.93-1.02,15.4-.17,.3-1.09,1.77-.55,2.83,.21,.42,.53,.53,.81,.81,1.25,1.17,.62,3.87,.47,4.38-.43,1.36-.87,4.57-3.17,5.68-.96,.49-1.85,.4-2.93,1.34-.68,.64-1.02,1.3-1.15,1.59-1.74,3.3-4.19,5-6.87,7.68-1.06,1.06-1.45,2.62-1.15,3.95,.57,.6,1.49,.59,2.7,.02,12.18-5.63,24.41-11.18,36.57-16.8,.74-.32,1.43-.96,1.83-1.62,3.54-5.57,7.02-11.18,10.57-16.88,1.14-1.83,.81-4.22-.79-5.65-1.87-1.66-3.44-2.92-3.03-6.48,1.85,1,3.18,1.15,5.01,2.13,.08-1.53,.13-3,.23-4.47,.28-4.66,1.15-5.47,5.74-5.55,3.13-.04,5.76,2.66,5.57,6.17Z"/>
        <path class="cls-2" d="M274.84,470.54h-46.75v-.37h46.75v.37Z"/>
      </g>
    </g>
  </g>
  <g id="Name">
    <path class="cls-1" d="M1084.44,387.1c0-1.6,1.35-2.95,2.95-2.95,1.72,0,3.08,1.35,3.08,2.95v57.96l35.69-35.56c1.23-1.23,2.95-1.23,4.18,0,1.23,1.11,1.23,2.95,0,4.18l-23.26,23.26,23.38,28.43c1.11,1.35,.98,3.08-.25,4.31-.62,.49-1.35,.62-1.97,.62-.86,0-1.85-.25-2.34-1.11l-23.14-27.93-12.31,12.31v13.78c0,1.6-1.35,2.95-3.08,2.95-1.6,0-2.95-1.35-2.95-2.95v-80.23Zm59.81,6.15c0-1.6,1.35-2.95,2.95-2.95,1.72,0,3.08,1.35,3.08,2.95v2.83c0,1.72-1.35,3.2-3.08,3.2-1.6,0-2.95-1.48-2.95-3.2v-2.83Zm0,19.69c0-1.72,1.35-2.95,2.95-2.95,1.72,0,3.08,1.23,3.08,2.95v54.39c0,1.6-1.35,2.95-3.08,2.95-1.6,0-2.95-1.35-2.95-2.95v-54.39Zm73.46,45.65c-5.29,7.14-13.66,11.69-23.13,11.69-16.24,0-29.16-13.54-29.16-30.03s12.92-30.27,29.16-30.27c9.48,0,17.84,4.68,23.13,11.81v-34.7c0-1.6,1.35-2.95,3.08-2.95,1.6,0,2.95,1.35,2.95,2.95v80.23c0,1.6-1.35,2.95-2.95,2.95-1.72,0-3.08-1.35-3.08-2.95v-8.74Zm0-17.35v-1.97c-.49-12.92-10.71-23.26-23.13-23.26s-23.13,10.83-23.13,24.24,10.46,24,23.13,24,22.64-10.21,23.13-23.01Zm19.57,16.49c.98-1.23,2.83-1.48,4.18-.37,4.18,3.08,10.83,7.01,18.46,7.01,4.68,0,8.74-1.48,11.44-3.69,2.95-1.97,4.55-4.68,4.55-7.38-.12-2.83-1.23-4.8-4.31-7.38-2.58-1.97-6.89-3.45-12.8-4.43l-.25-.12c-5.41-.99-10.21-2.22-13.66-4.68-3.81-2.22-6.52-6.15-6.52-10.83s2.71-8.98,6.52-11.81c3.57-2.46,8.62-4.06,14.77-4.06,7.75,0,13.29,3.57,17.97,6.52,1.35,.98,1.72,2.83,.86,4.18-.86,1.35-2.71,1.72-4.06,.86-4.43-2.95-8.86-6.03-14.77-6.03-4.92,0-8.86,1.35-11.45,3.45-2.46,1.97-3.81,4.43-3.81,6.89s1.11,4.18,3.44,6.03c2.71,1.84,6.77,3.32,12.31,4.18h.25c5.78,.86,10.46,2.58,14.64,4.92,3.94,2.58,6.77,7.26,6.77,12.31s-2.83,9.11-6.89,12.18c-4.18,3.08-9.11,4.8-15.01,4.8-9.72-.12-17.35-4.68-22.27-8.61-1.23-1.11-1.35-2.71-.37-3.94Zm133.76-44.79v54.39c0,1.6-1.35,2.95-2.95,2.95s-2.95-1.35-2.95-2.95v-8.98c-5.17,7.14-13.41,11.94-22.64,11.94-15.87,0-28.55-13.66-28.55-30.15s12.68-30.15,28.55-30.15c9.23,0,17.47,4.68,22.64,11.81v-8.86c0-1.72,1.35-2.95,2.95-2.95s2.95,1.23,2.95,2.95Zm-5.91,27.2c0-13.54-10.21-24.36-22.64-24.36s-22.64,10.83-22.64,24.36,10.34,24.24,22.64,24.24,22.64-10.71,22.64-24.24Zm48.85-52.79c0,1.6-1.35,2.95-2.95,2.95-4.18,0-6.4,.86-7.63,2.34-1.35,1.48-2.46,4.43-2.46,9.97v6.4h8.49c1.72,0,3.08,1.35,3.08,2.95,0,1.72-1.35,3.08-3.08,3.08h-8.49v52.42c0,1.6-1.35,2.95-2.95,2.95-1.72,0-3.08-1.35-3.08-2.95v-52.42h-8c-1.6,0-2.95-1.35-2.95-3.08,0-1.6,1.35-2.95,2.95-2.95h8v-6.4c.12-6.15,1.11-10.71,3.94-14.03,2.95-3.2,7.38-4.31,12.18-4.31,1.6,0,2.95,1.35,2.95,3.08Zm8.74,25.72c0-1.72,1.35-2.95,3.08-2.95,1.48,0,2.83,1.23,2.83,2.95v13.29c.25-.49,.49-.99,.86-1.48,4.55-7.14,12.55-14.77,24.12-14.77,1.6,0,2.95,1.23,2.95,2.95,0,1.6-1.35,2.95-2.95,2.95-7.88,0-13.29,4.43-17.47,9.84-4.06,5.41-6.4,11.57-7.26,14.03-.25,.49-.25,.74-.25,.99v26.46c0,1.72-1.35,2.95-2.83,2.95-1.72,0-3.08-1.23-3.08-2.95v-54.27Zm44.92-19.81c0-1.6,1.35-2.95,2.95-2.95,1.72,0,3.08,1.35,3.08,2.95v2.83c0,1.72-1.35,3.2-3.08,3.2-1.6,0-2.95-1.48-2.95-3.2v-2.83Zm0,19.69c0-1.72,1.35-2.95,2.95-2.95,1.72,0,3.08,1.23,3.08,2.95v54.39c0,1.6-1.35,2.95-3.08,2.95-1.6,0-2.95-1.35-2.95-2.95v-54.39Zm20.92,27.07c0-16.74,13.78-30.03,31.01-30.03,7.14,0,13.91,2.46,19.2,6.65,1.23,.86,1.48,2.71,.37,4.06-.99,1.11-2.71,1.48-4.06,.49-4.31-3.44-9.72-5.41-15.51-5.41-14.03,0-25.1,10.95-25.1,24.24s11.07,24.36,25.1,24.36c5.78,0,11.2-1.97,15.51-5.29,1.35-.99,3.08-.62,4.06,.49,1.11,1.35,.86,3.2-.62,4.31-5.04,3.94-11.81,6.4-18.95,6.4-17.23,0-31.01-13.29-31.01-30.27Zm115.92-27.07v54.39c0,1.6-1.35,2.95-2.95,2.95s-2.95-1.35-2.95-2.95v-8.98c-5.17,7.14-13.41,11.94-22.64,11.94-15.87,0-28.55-13.66-28.55-30.15s12.68-30.15,28.55-30.15c9.23,0,17.47,4.68,22.64,11.81v-8.86c0-1.72,1.35-2.95,2.95-2.95s2.95,1.23,2.95,2.95Zm-5.91,27.2c0-13.54-10.21-24.36-22.64-24.36s-22.64,10.83-22.64,24.36,10.34,24.24,22.64,24.24,22.64-10.71,22.64-24.24Zm-514.13-53.04c0-1.6,1.35-2.95,2.95-2.95,1.72,0,3.08,1.35,3.08,2.95v57.96l35.69-35.56c1.23-1.23,2.95-1.23,4.18,0,1.23,1.11,1.23,2.95,0,4.18l-23.26,23.26,23.38,28.43c1.11,1.35,.98,3.08-.25,4.31-.62,.49-1.35,.62-1.97,.62-.86,0-1.85-.25-2.34-1.11l-23.14-27.93-12.31,12.31v13.78c0,1.6-1.35,2.95-3.08,2.95-1.6,0-2.95-1.35-2.95-2.95v-80.23Zm59.81,6.15c0-1.6,1.35-2.95,2.95-2.95,1.72,0,3.08,1.35,3.08,2.95v2.83c0,1.72-1.35,3.2-3.08,3.2-1.6,0-2.95-1.48-2.95-3.2v-2.83Zm0,19.69c0-1.72,1.35-2.95,2.95-2.95,1.72,0,3.08,1.23,3.08,2.95v54.39c0,1.6-1.35,2.95-3.08,2.95-1.6,0-2.95-1.35-2.95-2.95v-54.39Zm73.46,45.65c-5.29,7.14-13.66,11.69-23.13,11.69-16.24,0-29.16-13.54-29.16-30.03s12.92-30.27,29.16-30.27c9.48,0,17.84,4.68,23.13,11.81v-34.7c0-1.6,1.35-2.95,3.08-2.95,1.6,0,2.95,1.35,2.95,2.95v80.23c0,1.6-1.35,2.95-2.95,2.95-1.72,0-3.08-1.35-3.08-2.95v-8.74Zm0-17.35v-1.97c-.49-12.92-10.71-23.26-23.13-23.26s-23.13,10.83-23.13,24.24,10.46,24,23.13,24,22.64-10.21,23.13-23.01Zm19.57,16.49c.98-1.23,2.83-1.48,4.18-.37,4.18,3.08,10.83,7.01,18.46,7.01,4.68,0,8.74-1.48,11.44-3.69,2.95-1.97,4.55-4.68,4.55-7.38-.12-2.83-1.23-4.8-4.31-7.38-2.58-1.97-6.89-3.45-12.8-4.43l-.25-.12c-5.41-.99-10.21-2.22-13.66-4.68-3.81-2.22-6.52-6.15-6.52-10.83s2.71-8.98,6.52-11.81c3.57-2.46,8.62-4.06,14.77-4.06,7.75,0,13.29,3.57,17.97,6.52,1.35,.98,1.72,2.83,.86,4.18-.86,1.35-2.71,1.72-4.06,.86-4.43-2.95-8.86-6.03-14.77-6.03-4.92,0-8.86,1.35-11.45,3.45-2.46,1.97-3.81,4.43-3.81,6.89s1.11,4.18,3.44,6.03c2.71,1.84,6.77,3.32,12.31,4.18h.25c5.78,.86,10.46,2.58,14.64,4.92,3.94,2.58,6.77,7.26,6.77,12.31s-2.83,9.11-6.89,12.18c-4.18,3.08-9.11,4.8-15.01,4.8-9.72-.12-17.35-4.68-22.27-8.61-1.23-1.11-1.35-2.71-.37-3.94Zm133.76-44.79v54.39c0,1.6-1.35,2.95-2.95,2.95s-2.95-1.35-2.95-2.95v-8.98c-5.17,7.14-13.41,11.94-22.64,11.94-15.87,0-28.55-13.66-28.55-30.15s12.68-30.15,28.55-30.15c9.23,0,17.47,4.68,22.64,11.81v-8.86c0-1.72,1.35-2.95,2.95-2.95s2.95,1.23,2.95,2.95Zm-5.91,27.2c0-13.54-10.21-24.36-22.64-24.36s-22.64,10.83-22.64,24.36,10.34,24.24,22.64,24.24,22.64-10.71,22.64-24.24Zm48.85-52.79c0,1.6-1.35,2.95-2.95,2.95-4.18,0-6.4,.86-7.63,2.34-1.35,1.48-2.46,4.43-2.46,9.97v6.4h8.49c1.72,0,3.08,1.35,3.08,2.95,0,1.72-1.35,3.08-3.08,3.08h-8.49v52.42c0,1.6-1.35,2.95-2.95,2.95-1.72,0-3.08-1.35-3.08-2.95v-52.42h-8c-1.6,0-2.95-1.35-2.95-3.08,0-1.6,1.35-2.95,2.95-2.95h8v-6.4c.12-6.15,1.11-10.71,3.94-14.03,2.95-3.2,7.38-4.31,12.18-4.31,1.6,0,2.95,1.35,2.95,3.08Zm8.74,25.72c0-1.72,1.35-2.95,3.08-2.95,1.48,0,2.83,1.23,2.83,2.95v13.29c.25-.49,.49-.99,.86-1.48,4.55-7.14,12.55-14.77,24.12-14.77,1.6,0,2.95,1.23,2.95,2.95,0,1.6-1.35,2.95-2.95,2.95-7.88,0-13.29,4.43-17.47,9.84-4.06,5.41-6.4,11.57-7.26,14.03-.25,.49-.25,.74-.25,.99v26.46c0,1.72-1.35,2.95-2.83,2.95-1.72,0-3.08-1.23-3.08-2.95v-54.27Zm44.92-19.81c0-1.6,1.35-2.95,2.95-2.95,1.72,0,3.08,1.35,3.08,2.95v2.83c0,1.72-1.35,3.2-3.08,3.2-1.6,0-2.95-1.48-2.95-3.2v-2.83Zm0,19.69c0-1.72,1.35-2.95,2.95-2.95,1.72,0,3.08,1.23,3.08,2.95v54.39c0,1.6-1.35,2.95-3.08,2.95-1.6,0-2.95-1.35-2.95-2.95v-54.39Zm20.92,27.07c0-16.74,13.78-30.03,31.01-30.03,7.14,0,13.91,2.46,19.2,6.65,1.23,.86,1.48,2.71,.37,4.06-.99,1.11-2.71,1.48-4.06,.49-4.31-3.44-9.72-5.41-15.51-5.41-14.03,0-25.1,10.95-25.1,24.24s11.07,24.36,25.1,24.36c5.78,0,11.2-1.97,15.51-5.29,1.35-.99,3.08-.62,4.06,.49,1.11,1.35,.86,3.2-.62,4.31-5.04,3.94-11.81,6.4-18.95,6.4-17.23,0-31.01-13.29-31.01-30.27Zm115.92-27.07v54.39c0,1.6-1.35,2.95-2.95,2.95s-2.95-1.35-2.95-2.95v-8.98c-5.17,7.14-13.41,11.94-22.64,11.94-15.87,0-28.55-13.66-28.55-30.15s12.68-30.15,28.55-30.15c9.23,0,17.47,4.68,22.64,11.81v-8.86c0-1.72,1.35-2.95,2.95-2.95s2.95,1.23,2.95,2.95Zm-5.91,27.2c0-13.54-10.21-24.36-22.64-24.36s-22.64,10.83-22.64,24.36,10.34,24.24,22.64,24.24,22.64-10.71,22.64-24.24Zm-514.13-53.04c0-1.6,1.35-2.95,2.95-2.95,1.72,0,3.08,1.35,3.08,2.95v57.96l35.69-35.56c1.23-1.23,2.95-1.23,4.18,0,1.23,1.11,1.23,2.95,0,4.18l-23.26,23.26,23.38,28.43c1.11,1.35,.98,3.08-.25,4.31-.62,.49-1.35,.62-1.97,.62-.86,0-1.85-.25-2.34-1.11l-23.14-27.93-12.31,12.31v13.78c0,1.6-1.35,2.95-3.08,2.95-1.6,0-2.95-1.35-2.95-2.95v-80.23Zm59.81,6.15c0-1.6,1.35-2.95,2.95-2.95,1.72,0,3.08,1.35,3.08,2.95v2.83c0,1.72-1.35,3.2-3.08,3.2-1.6,0-2.95-1.48-2.95-3.2v-2.83Zm0,19.69c0-1.72,1.35-2.95,2.95-2.95,1.72,0,3.08,1.23,3.08,2.95v54.39c0,1.6-1.35,2.95-3.08,2.95-1.6,0-2.95-1.35-2.95-2.95v-54.39Zm73.46,45.65c-5.29,7.14-13.66,11.69-23.13,11.69-16.24,0-29.16-13.54-29.16-30.03s12.92-30.27,29.16-30.27c9.48,0,17.84,4.68,23.13,11.81v-34.7c0-1.6,1.35-2.95,3.08-2.95,1.6,0,2.95,1.35,2.95,2.95v80.23c0,1.6-1.35,2.95-2.95,2.95-1.72,0-3.08-1.35-3.08-2.95v-8.74Zm0-17.35v-1.97c-.49-12.92-10.71-23.26-23.13-23.26s-23.13,10.83-23.13,24.24,10.46,24,23.13,24,22.64-10.21,23.13-23.01Zm19.57,16.49c.98-1.23,2.83-1.48,4.18-.37,4.18,3.08,10.83,7.01,18.46,7.01,4.68,0,8.74-1.48,11.44-3.69,2.95-1.97,4.55-4.68,4.55-7.38-.12-2.83-1.23-4.8-4.31-7.38-2.58-1.97-6.89-3.45-12.8-4.43l-.25-.12c-5.41-.99-10.21-2.22-13.66-4.68-3.81-2.22-6.52-6.15-6.52-10.83s2.71-8.98,6.52-11.81c3.57-2.46,8.62-4.06,14.77-4.06,7.75,0,13.29,3.57,17.97,6.52,1.35,.98,1.72,2.83,.86,4.18-.86,1.35-2.71,1.72-4.06,.86-4.43-2.95-8.86-6.03-14.77-6.03-4.92,0-8.86,1.35-11.45,3.45-2.46,1.97-3.81,4.43-3.81,6.89s1.11,4.18,3.44,6.03c2.71,1.84,6.77,3.32,12.31,4.18h.25c5.78,.86,10.46,2.58,14.64,4.92,3.94,2.58,6.77,7.26,6.77,12.31s-2.83,9.11-6.89,12.18c-4.18,3.08-9.11,4.8-15.01,4.8-9.72-.12-17.35-4.68-22.27-8.61-1.23-1.11-1.35-2.71-.37-3.94Zm133.76-44.79v54.39c0,1.6-1.35,2.95-2.95,2.95s-2.95-1.35-2.95-2.95v-8.98c-5.17,7.14-13.41,11.94-22.64,11.94-15.87,0-28.55-13.66-28.55-30.15s12.68-30.15,28.55-30.15c9.23,0,17.47,4.68,22.64,11.81v-8.86c0-1.72,1.35-2.95,2.95-2.95s2.95,1.23,2.95,2.95Zm-5.91,27.2c0-13.54-10.21-24.36-22.64-24.36s-22.64,10.83-22.64,24.36,10.34,24.24,22.64,24.24,22.64-10.71,22.64-24.24Zm48.85-52.79c0,1.6-1.35,2.95-2.95,2.95-4.18,0-6.4,.86-7.63,2.34-1.35,1.48-2.46,4.43-2.46,9.97v6.4h8.49c1.72,0,3.08,1.35,3.08,2.95,0,1.72-1.35,3.08-3.08,3.08h-8.49v52.42c0,1.6-1.35,2.95-2.95,2.95-1.72,0-3.08-1.35-3.08-2.95v-52.42h-8c-1.6,0-2.95-1.35-2.95-3.08,0-1.6,1.35-2.95,2.95-2.95h8v-6.4c.12-6.15,1.11-10.71,3.94-14.03,2.95-3.2,7.38-4.31,12.18-4.31,1.6,0,2.95,1.35,2.95,3.08Zm8.74,25.72c0-1.72,1.35-2.95,3.08-2.95,1.48,0,2.83,1.23,2.83,2.95v13.29c.25-.49,.49-.99,.86-1.48,4.55-7.14,12.55-14.77,24.12-14.77,1.6,0,2.95,1.23,2.95,2.95,0,1.6-1.35,2.95-2.95,2.95-7.88,0-13.29,4.43-17.47,9.84-4.06,5.41-6.4,11.57-7.26,14.03-.25,.49-.25,.74-.25,.99v26.46c0,1.72-1.35,2.95-2.83,2.95-1.72,0-3.08-1.23-3.08-2.95v-54.27Zm44.92-19.81c0-1.6,1.35-2.95,2.95-2.95,1.72,0,3.08,1.35,3.08,2.95v2.83c0,1.72-1.35,3.2-3.08,3.2-1.6,0-2.95-1.48-2.95-3.2v-2.83Zm0,19.69c0-1.72,1.35-2.95,2.95-2.95,1.72,0,3.08,1.23,3.08,2.95v54.39c0,1.6-1.35,2.95-3.08,2.95-1.6,0-2.95-1.35-2.95-2.95v-54.39Zm20.92,27.07c0-16.74,13.78-30.03,31.01-30.03,7.14,0,13.91,2.46,19.2,6.65,1.23,.86,1.48,2.71,.37,4.06-.99,1.11-2.71,1.48-4.06,.49-4.31-3.44-9.72-5.41-15.51-5.41-14.03,0-25.1,10.95-25.1,24.24s11.07,24.36,25.1,24.36c5.78,0,11.2-1.97,15.51-5.29,1.35-.99,3.08-.62,4.06,.49,1.11,1.35,.86,3.2-.62,4.31-5.04,3.94-11.81,6.4-18.95,6.4-17.23,0-31.01-13.29-31.01-30.27Zm115.92-27.07v54.39c0,1.6-1.35,2.95-2.95,2.95s-2.95-1.35-2.95-2.95v-8.98c-5.17,7.14-13.41,11.94-22.64,11.94-15.87,0-28.55-13.66-28.55-30.15s12.68-30.15,28.55-30.15c9.23,0,17.47,4.68,22.64,11.81v-8.86c0-1.72,1.35-2.95,2.95-2.95s2.95,1.23,2.95,2.95Zm-5.91,27.2c0-13.54-10.21-24.36-22.64-24.36s-22.64,10.83-22.64,24.36,10.34,24.24,22.64,24.24,22.64-10.71,22.64-24.24Zm-514.13-53.04c0-1.6,1.35-2.95,2.95-2.95,1.72,0,3.08,1.35,3.08,2.95v57.96l35.69-35.56c1.23-1.23,2.95-1.23,4.18,0,1.23,1.11,1.23,2.95,0,4.18l-23.26,23.26,23.38,28.43c1.11,1.35,.98,3.08-.25,4.31-.62,.49-1.35,.62-1.97,.62-.86,0-1.85-.25-2.34-1.11l-23.14-27.93-12.31,12.31v13.78c0,1.6-1.35,2.95-3.08,2.95-1.6,0-2.95-1.35-2.95-2.95v-80.23Zm59.81,6.15c0-1.6,1.35-2.95,2.95-2.95,1.72,0,3.08,1.35,3.08,2.95v2.83c0,1.72-1.35,3.2-3.08,3.2-1.6,0-2.95-1.48-2.95-3.2v-2.83Zm0,19.69c0-1.72,1.35-2.95,2.95-2.95,1.72,0,3.08,1.23,3.08,2.95v54.39c0,1.6-1.35,2.95-3.08,2.95-1.6,0-2.95-1.35-2.95-2.95v-54.39Zm73.46,45.65c-5.29,7.14-13.66,11.69-23.13,11.69-16.24,0-29.16-13.54-29.16-30.03s12.92-30.27,29.16-30.27c9.48,0,17.84,4.68,23.13,11.81v-34.7c0-1.6,1.35-2.95,3.08-2.95,1.6,0,2.95,1.35,2.95,2.95v80.23c0,1.6-1.35,2.95-2.95,2.95-1.72,0-3.08-1.35-3.08-2.95v-8.74Zm0-17.35v-1.97c-.49-12.92-10.71-23.26-23.13-23.26s-23.13,10.83-23.13,24.24,10.46,24,23.13,24,22.64-10.21,23.13-23.01Zm19.57,16.49c.98-1.23,2.83-1.48,4.18-.37,4.18,3.08,10.83,7.01,18.46,7.01,4.68,0,8.74-1.48,11.44-3.69,2.95-1.97,4.55-4.68,4.55-7.38-.12-2.83-1.23-4.8-4.31-7.38-2.58-1.97-6.89-3.45-12.8-4.43l-.25-.12c-5.41-.99-10.21-2.22-13.66-4.68-3.81-2.22-6.52-6.15-6.52-10.83s2.71-8.98,6.52-11.81c3.57-2.46,8.62-4.06,14.77-4.06,7.75,0,13.29,3.57,17.97,6.52,1.35,.98,1.72,2.83,.86,4.18-.86,1.35-2.71,1.72-4.06,.86-4.43-2.95-8.86-6.03-14.77-6.03-4.92,0-8.86,1.35-11.45,3.45-2.46,1.97-3.81,4.43-3.81,6.89s1.11,4.18,3.44,6.03c2.71,1.84,6.77,3.32,12.31,4.18h.25c5.78,.86,10.46,2.58,14.64,4.92,3.94,2.58,6.77,7.26,6.77,12.31s-2.83,9.11-6.89,12.18c-4.18,3.08-9.11,4.8-15.01,4.8-9.72-.12-17.35-4.68-22.27-8.61-1.23-1.11-1.35-2.71-.37-3.94Zm133.76-44.79v54.39c0,1.6-1.35,2.95-2.95,2.95s-2.95-1.35-2.95-2.95v-8.98c-5.17,7.14-13.41,11.94-22.64,11.94-15.87,0-28.55-13.66-28.55-30.15s12.68-30.15,28.55-30.15c9.23,0,17.47,4.68,22.64,11.81v-8.86c0-1.72,1.35-2.95,2.95-2.95s2.95,1.23,2.95,2.95Zm-5.91,27.2c0-13.54-10.21-24.36-22.64-24.36s-22.64,10.83-22.64,24.36,10.34,24.24,22.64,24.24,22.64-10.71,22.64-24.24Zm48.85-52.79c0,1.6-1.35,2.95-2.95,2.95-4.18,0-6.4,.86-7.63,2.34-1.35,1.48-2.46,4.43-2.46,9.97v6.4h8.49c1.72,0,3.08,1.35,3.08,2.95,0,1.72-1.35,3.08-3.08,3.08h-8.49v52.42c0,1.6-1.35,2.95-2.95,2.95-1.72,0-3.08-1.35-3.08-2.95v-52.42h-8c-1.6,0-2.95-1.35-2.95-3.08,0-1.6,1.35-2.95,2.95-2.95h8v-6.4c.12-6.15,1.11-10.71,3.94-14.03,2.95-3.2,7.38-4.31,12.18-4.31,1.6,0,2.95,1.35,2.95,3.08Zm8.74,25.72c0-1.72,1.35-2.95,3.08-2.95,1.48,0,2.83,1.23,2.83,2.95v13.29c.25-.49,.49-.99,.86-1.48,4.55-7.14,12.55-14.77,24.12-14.77,1.6,0,2.95,1.23,2.95,2.95,0,1.6-1.35,2.95-2.95,2.95-7.88,0-13.29,4.43-17.47,9.84-4.06,5.41-6.4,11.57-7.26,14.03-.25,.49-.25,.74-.25,.99v26.46c0,1.72-1.35,2.95-2.83,2.95-1.72,0-3.08-1.23-3.08-2.95v-54.27Zm44.92-19.81c0-1.6,1.35-2.95,2.95-2.95,1.72,0,3.08,1.35,3.08,2.95v2.83c0,1.72-1.35,3.2-3.08,3.2-1.6,0-2.95-1.48-2.95-3.2v-2.83Zm0,19.69c0-1.72,1.35-2.95,2.95-2.95,1.72,0,3.08,1.23,3.08,2.95v54.39c0,1.6-1.35,2.95-3.08,2.95-1.6,0-2.95-1.35-2.95-2.95v-54.39Zm20.92,27.07c0-16.74,13.78-30.03,31.01-30.03,7.14,0,13.91,2.46,19.2,6.65,1.23,.86,1.48,2.71,.37,4.06-.99,1.11-2.71,1.48-4.06,.49-4.31-3.44-9.72-5.41-15.51-5.41-14.03,0-25.1,10.95-25.1,24.24s11.07,24.36,25.1,24.36c5.78,0,11.2-1.97,15.51-5.29,1.35-.99,3.08-.62,4.06,.49,1.11,1.35,.86,3.2-.62,4.31-5.04,3.94-11.81,6.4-18.95,6.4-17.23,0-31.01-13.29-31.01-30.27Zm115.92-27.07v54.39c0,1.6-1.35,2.95-2.95,2.95s-2.95-1.35-2.95-2.95v-8.98c-5.17,7.14-13.41,11.94-22.64,11.94-15.87,0-28.55-13.66-28.55-30.15s12.68-30.15,28.55-30.15c9.23,0,17.47,4.68,22.64,11.81v-8.86c0-1.72,1.35-2.95,2.95-2.95s2.95,1.23,2.95,2.95Zm-5.91,27.2c0-13.54-10.21-24.36-22.64-24.36s-22.64,10.83-22.64,24.36,10.34,24.24,22.64,24.24,22.64-10.71,22.64-24.24Zm-514.13-53.04c0-1.6,1.35-2.95,2.95-2.95,1.72,0,3.08,1.35,3.08,2.95v57.96l35.69-35.56c1.23-1.23,2.95-1.23,4.18,0,1.23,1.11,1.23,2.95,0,4.18l-23.26,23.26,23.38,28.43c1.11,1.35,.98,3.08-.25,4.31-.62,.49-1.35,.62-1.97,.62-.86,0-1.85-.25-2.34-1.11l-23.14-27.93-12.31,12.31v13.78c0,1.6-1.35,2.95-3.08,2.95-1.6,0-2.95-1.35-2.95-2.95v-80.23Zm59.81,6.15c0-1.6,1.35-2.95,2.95-2.95,1.72,0,3.08,1.35,3.08,2.95v2.83c0,1.72-1.35,3.2-3.08,3.2-1.6,0-2.95-1.48-2.95-3.2v-2.83Zm0,19.69c0-1.72,1.35-2.95,2.95-2.95,1.72,0,3.08,1.23,3.08,2.95v54.39c0,1.6-1.35,2.95-3.08,2.95-1.6,0-2.95-1.35-2.95-2.95v-54.39Zm73.46,45.65c-5.29,7.14-13.66,11.69-23.13,11.69-16.24,0-29.16-13.54-29.16-30.03s12.92-30.27,29.16-30.27c9.48,0,17.84,4.68,23.13,11.81v-34.7c0-1.6,1.35-2.95,3.08-2.95,1.6,0,2.95,1.35,2.95,2.95v80.23c0,1.6-1.35,2.95-2.95,2.95-1.72,0-3.08-1.35-3.08-2.95v-8.74Zm0-17.35v-1.97c-.49-12.92-10.71-23.26-23.13-23.26s-23.13,10.83-23.13,24.24,10.46,24,23.13,24,22.64-10.21,23.13-23.01Zm19.57,16.49c.98-1.23,2.83-1.48,4.18-.37,4.18,3.08,10.83,7.01,18.46,7.01,4.68,0,8.74-1.48,11.44-3.69,2.95-1.97,4.55-4.68,4.55-7.38-.12-2.83-1.23-4.8-4.31-7.38-2.58-1.97-6.89-3.45-12.8-4.43l-.25-.12c-5.41-.99-10.21-2.22-13.66-4.68-3.81-2.22-6.52-6.15-6.52-10.83s2.71-8.98,6.52-11.81c3.57-2.46,8.62-4.06,14.77-4.06,7.75,0,13.29,3.57,17.97,6.52,1.35,.98,1.72,2.83,.86,4.18-.86,1.35-2.71,1.72-4.06,.86-4.43-2.95-8.86-6.03-14.77-6.03-4.92,0-8.86,1.35-11.45,3.45-2.46,1.97-3.81,4.43-3.81,6.89s1.11,4.18,3.44,6.03c2.71,1.84,6.77,3.32,12.31,4.18h.25c5.78,.86,10.46,2.58,14.64,4.92,3.94,2.58,6.77,7.26,6.77,12.31s-2.83,9.11-6.89,12.18c-4.18,3.08-9.11,4.8-15.01,4.8-9.72-.12-17.35-4.68-22.27-8.61-1.23-1.11-1.35-2.71-.37-3.94Zm133.76-44.79v54.39c0,1.6-1.35,2.95-2.95,2.95s-2.95-1.35-2.95-2.95v-8.98c-5.17,7.14-13.41,11.94-22.64,11.94-15.87,0-28.55-13.66-28.55-30.15s12.68-30.15,28.55-30.15c9.23,0,17.47,4.68,22.64,11.81v-8.86c0-1.72,1.35-2.95,2.95-2.95s2.95,1.23,2.95,2.95Zm-5.91,27.2c0-13.54-10.21-24.36-22.64-24.36s-22.64,10.83-22.64,24.36,10.34,24.24,22.64,24.24,22.64-10.71,22.64-24.24Zm48.85-52.79c0,1.6-1.35,2.95-2.95,2.95-4.18,0-6.4,.86-7.63,2.34-1.35,1.48-2.46,4.43-2.46,9.97v6.4h8.49c1.72,0,3.08,1.35,3.08,2.95,0,1.72-1.35,3.08-3.08,3.08h-8.49v52.42c0,1.6-1.35,2.95-2.95,2.95-1.72,0-3.08-1.35-3.08-2.95v-52.42h-8c-1.6,0-2.95-1.35-2.95-3.08,0-1.6,1.35-2.95,2.95-2.95h8v-6.4c.12-6.15,1.11-10.71,3.94-14.03,2.95-3.2,7.38-4.31,12.18-4.31,1.6,0,2.95,1.35,2.95,3.08Zm8.74,25.72c0-1.72,1.35-2.95,3.08-2.95,1.48,0,2.83,1.23,2.83,2.95v13.29c.25-.49,.49-.99,.86-1.48,4.55-7.14,12.55-14.77,24.12-14.77,1.6,0,2.95,1.23,2.95,2.95,0,1.6-1.35,2.95-2.95,2.95-7.88,0-13.29,4.43-17.47,9.84-4.06,5.41-6.4,11.57-7.26,14.03-.25,.49-.25,.74-.25,.99v26.46c0,1.72-1.35,2.95-2.83,2.95-1.72,0-3.08-1.23-3.08-2.95v-54.27Zm44.92-19.81c0-1.6,1.35-2.95,2.95-2.95,1.72,0,3.08,1.35,3.08,2.95v2.83c0,1.72-1.35,3.2-3.08,3.2-1.6,0-2.95-1.48-2.95-3.2v-2.83Zm0,19.69c0-1.72,1.35-2.95,2.95-2.95,1.72,0,3.08,1.23,3.08,2.95v54.39c0,1.6-1.35,2.95-3.08,2.95-1.6,0-2.95-1.35-2.95-2.95v-54.39Zm20.92,27.07c0-16.74,13.78-30.03,31.01-30.03,7.14,0,13.91,2.46,19.2,6.65,1.23,.86,1.48,2.71,.37,4.06-.99,1.11-2.71,1.48-4.06,.49-4.31-3.44-9.72-5.41-15.51-5.41-14.03,0-25.1,10.95-25.1,24.24s11.07,24.36,25.1,24.36c5.78,0,11.2-1.97,15.51-5.29,1.35-.99,3.08-.62,4.06,.49,1.11,1.35,.86,3.2-.62,4.31-5.04,3.94-11.81,6.4-18.95,6.4-17.23,0-31.01-13.29-31.01-30.27Zm115.92-27.07v54.39c0,1.6-1.35,2.95-2.95,2.95s-2.95-1.35-2.95-2.95v-8.98c-5.17,7.14-13.41,11.94-22.64,11.94-15.87,0-28.55-13.66-28.55-30.15s12.68-30.15,28.55-30.15c9.23,0,17.47,4.68,22.64,11.81v-8.86c0-1.72,1.35-2.95,2.95-2.95s2.95,1.23,2.95,2.95Zm-5.91,27.2c0-13.54-10.21-24.36-22.64-24.36s-22.64,10.83-22.64,24.36,10.34,24.24,22.64,24.24,22.64-10.71,22.64-24.24Z"/>
    <path class="cls-2" d="M740.04,352.91v-112.81c0-5.93,4.59-10.51,10.51-10.51h62.52c5.54,0,10.51,4.59,10.51,10.51s-4.97,10.71-10.51,10.71h-51.81v34.99h44.55c5.74,0,10.52,4.97,10.52,10.51,0,5.93-4.78,10.71-10.52,10.71h-44.55v35.18h51.81c5.54,0,10.51,4.78,10.51,10.71s-4.97,10.51-10.51,10.51h-61.95c-.38,0-.38-.19-.38-.19l-.19,.19c-5.93,0-10.51-4.78-10.51-10.51Zm171.15-45.31v45.7c0,5.54-4.4,10.13-9.94,10.13s-10.13-4.59-10.13-10.13v-45.7c0-10.71-8.99-19.31-19.88-19.31s-19.12,8.6-19.12,19.31v45.7c0,.57,0,1.14-.38,1.91-.96,4.59-5.16,8.22-10.13,8.22-5.74,0-10.13-4.59-10.13-10.13v-75.33c0-5.54,4.4-10.13,10.13-10.13,4.02,0,7.65,2.29,9.37,5.93,5.74-3.63,12.81-5.93,20.27-5.93,22.18,0,39.96,18.16,39.96,39.77Zm17.66-78.01c5.93,0,10.71,4.78,10.71,10.51v112.81c0,5.74-4.78,10.51-10.71,10.51s-10.51-4.78-10.51-10.51v-112.81c0-5.74,4.78-10.51,10.51-10.51Zm41.03,14.34c0,5.74-4.4,10.51-10.32,10.51s-10.33-4.78-10.33-10.51v-4.02c0-5.74,4.59-10.32,10.33-10.32s10.32,4.59,10.32,10.32v4.02Zm0,34.6v74.57c0,5.74-4.4,10.32-10.32,10.32s-10.33-4.59-10.33-10.32v-74.57c0-6.12,4.59-10.51,10.33-10.51s10.32,4.4,10.32,10.51Zm101.3,37.67v35.56c0,25.05-20.46,45.88-45.89,45.88-7.07,0-14.15-1.72-20.07-4.78-4.97-2.29-7.27-8.6-4.59-13.77,2.49-5.16,8.41-7.07,13.77-4.78,3.25,1.72,6.88,2.68,10.9,2.68,12.43,0,22.56-8.8,25.05-20.46-6.88,4.78-15.68,7.65-25.05,7.65-12.62,0-24.28-5.54-32.5-14.53-8.22-8.41-13.38-20.26-13.38-33.65s5.16-25.05,13.38-34.03c8.22-8.6,19.88-14.15,32.5-14.15,9.94,0,18.74,3.06,25.62,8.03,.96-4.59,5.16-8.03,10.13-8.03,5.74,0,10.13,4.59,10.13,10.13v38.24Zm-18.65-.19c0-7.65-3.06-14.91-7.27-19.5-4.97-5.35-10.9-8.22-18.16-8.22-6.69,0-13,2.87-17.59,8.22-4.59,4.59-7.65,11.85-7.65,19.5,0,8.03,3.06,15.29,7.65,19.69,4.59,5.16,10.9,7.84,17.59,7.84,7.27,0,13.19-2.67,18.16-7.84,4.21-4.4,7.27-11.67,7.27-19.69Zm49.9,36.9c0,5.93-4.78,10.51-10.71,10.51-4.78,0-8.79-3.44-10.13-7.84-.19-.77-.38-1.72-.38-2.67v-112.81c0-5.93,4.78-10.51,10.52-10.51s10.71,4.59,10.71,10.51v33.27c6.12-3.25,13-5.54,20.46-5.54,23.13,0,41.68,18.93,41.68,41.87v43.21c0,5.93-4.59,10.51-10.51,10.51s-10.52-4.59-10.52-10.51v-43.21c0-11.28-9.18-20.46-20.65-20.65-11.28,.19-20.27,9.37-20.46,20.65v43.21Zm122.78-74.57c0,5.74-4.97,10.51-10.71,10.51h-4.78v53.34c5.93,0,10.51,4.78,10.51,10.71s-4.59,10.51-10.51,10.51c-11.66,0-21.22-9.56-21.22-21.22v-53.34h-5.54c-5.93,0-10.51-4.78-10.51-10.51s4.59-10.51,10.51-10.51h5.54v-27.72c0-5.93,4.78-10.51,10.71-10.51s10.52,4.59,10.52,10.51v27.72h4.78c5.74,0,10.71,4.59,10.71,10.51Zm7.87,37.28c.19-26,20.46-47.8,46.65-47.8s44.55,18.55,46.08,44.35v.96c0,.38,0,1.34-.19,1.72-.57,4.59-4.59,7.65-9.94,7.65h-60.8c.95,4.4,3.06,9.37,6.5,12.62,4.01,4.59,11.66,8.03,18.35,8.6,6.88,.57,15.1-1.15,19.88-4.78,4.02-4.21,11.85-3.63,14.34-.57,2.49,2.68,4.4,8.41,0,12.43-9.37,8.6-20.65,12.62-34.22,12.62-26.19-.19-46.46-21.79-46.65-47.8Zm20.84-9.37h54.11c-1.91-7.65-11.66-18.93-28.3-20.26-16.25,.77-24.28,12.43-25.81,20.26Zm158.51,1.34v45.7c0,5.54-4.4,10.13-9.94,10.13s-10.14-4.59-10.14-10.13v-45.7c0-10.71-8.98-19.31-19.88-19.31s-19.12,8.6-19.12,19.31v45.7c0,.57,0,1.14-.38,1.91-.96,4.59-5.16,8.22-10.14,8.22-5.74,0-10.13-4.59-10.13-10.13v-75.33c0-5.54,4.4-10.13,10.13-10.13,4.02,0,7.65,2.29,9.37,5.93,5.74-3.63,12.81-5.93,20.27-5.93,22.18,0,39.96,18.16,39.96,39.77Zm9.36,8.03c.19-26,20.46-47.8,46.65-47.8s44.55,18.55,46.08,44.35v.96c0,.38,0,1.34-.19,1.72-.57,4.59-4.59,7.65-9.94,7.65h-60.8c.95,4.4,3.06,9.37,6.5,12.62,4.01,4.59,11.66,8.03,18.35,8.6,6.88,.57,15.1-1.15,19.88-4.78,4.02-4.21,11.85-3.63,14.34-.57,2.49,2.68,4.4,8.41,0,12.43-9.37,8.6-20.65,12.62-34.22,12.62-26.19-.19-46.46-21.79-46.65-47.8Zm20.84-9.37h54.11c-1.91-7.65-11.66-18.93-28.3-20.26-16.25,.77-24.28,12.43-25.81,20.26Zm172.68,46.84c0,5.54-4.59,10.32-10.32,10.32-5.16,0-9.18-3.63-10.14-8.22-7.27,4.97-16.44,8.22-26,8.22-25.81,0-46.46-21.79-46.46-47.61s20.65-47.99,46.46-47.99c9.37,0,18.55,3.06,25.62,8.03v-35.94c0-5.54,4.59-10.32,10.52-10.32s10.32,4.78,10.32,10.32v113.19Zm-46.46-64.43c-6.88,0-13.19,2.87-17.98,7.84-4.78,4.78-7.65,11.66-7.65,19.31s2.87,14.15,7.65,18.93c4.78,4.97,11.09,7.84,17.98,7.84s13.19-2.87,17.97-7.84c4.78-4.78,7.65-11.66,7.65-18.93,0-7.65-2.87-14.53-7.65-19.31-4.78-4.97-10.9-7.84-17.97-7.84Z"/>
  </g>
</svg>